<svg xmlns:xlink="http://www.w3.org/1999/xlink" viewBox="0 0 574 125"><defs><rect id="b" width="554" height="105" x="0" y="0" rx="20"/><filter id="a" width="105.6%" height="129.5%" x="-2.6%" y="-15.7%" filterUnits="objectBoundingBox"><feMorphology in="SourceAlpha" operator="dilate" radius="1" result="shadowSpreadOuter1"/><feOffset dx="1" dy="-1" in="shadowSpreadOuter1" result="shadowOffsetOuter1"/><feGaussianBlur in="shadowOffsetOuter1" result="shadowBlurOuter1" stdDeviation="4"/><feColorMatrix in="shadowBlurOuter1" values="0 0 0 0 0 0 0 0 0 0 0 0 0 0 0 0 0 0 0.150540865 0"/></filter></defs><g fill="none" fill-rule="evenodd" transform="translate(9 11)"><use fill="#000" filter="url(#a)" xlink:href="#b"/><use fill="#C5CAE9" xlink:href="#b"/><g fill="#000" fill-rule="nonzero"><path d="M163.5 18C145.55 18 131 32.55 131 50.5S145.55 83 163.5 83 196 68.45 196 50.5 181.45 18 163.5 18z" opacity=".3"/><path d="M159.852 18.225c-14.98 1.625-27.03 13.647-28.658 28.269-1.629 15.271 7.164 28.918 20.516 34.116.977.325 1.954-.325 1.954-1.624v-5.2s-1.302.326-2.93.326c-4.56 0-6.514-3.9-6.84-6.174-.325-1.3-.977-2.274-1.954-3.25-.976-.324-1.302-.324-1.302-.65 0-.649.977-.649 1.302-.649 1.954 0 3.583 2.275 4.234 3.25 1.628 2.599 3.582 3.249 4.56 3.249 1.302 0 2.279-.325 2.93-.65.326-2.275 1.303-4.55 3.257-5.849-7.49-1.625-13.027-5.849-13.027-12.997 0-3.574 1.629-7.149 3.908-9.748-.325-.65-.651-2.274-.651-4.549 0-1.3 0-3.25.977-5.199 0 0 4.56 0 9.118 4.224 1.629-.65 3.908-.975 6.188-.975s4.56.325 6.513.975c4.234-4.224 9.119-4.224 9.119-4.224.651 1.95.651 3.9.651 5.199 0 2.6-.326 3.9-.651 4.549 2.28 2.6 3.908 5.849 3.908 9.748 0 7.148-5.537 11.372-13.027 12.997 1.954 1.625 3.257 4.55 3.257 7.473v8.449c0 .974.977 1.95 2.28 1.624C187.532 76.062 196 64.365 196 50.718c0-19.496-16.609-34.768-36.148-32.493z"/></g><g fill-rule="nonzero"><path fill="#455A64" d="M128.97 34.584c1.14-3.24 2.28-9.531-.76-16.584-8.55 0-15.77 6.1-16.91 7.243-4.18-.953-8.74-1.333-13.3-1.333-4.75 0-9.31.572-13.68 1.525C78.43 19.334 70.64 18 67.6 18c0 0-1.71 3.431-1.71 9.53 0 3.813.95 6.1 1.52 7.244C62.85 39.54 60 46.021 60 54.408 60 75.757 73.49 83 98 83c24.51 0 38-7.243 38-28.592 0-8.769-2.66-15.25-7.03-19.824z"/><path fill="#FFCCBC" d="M98.5 79C82.92 79 70 76.368 70 62.082c0-5.451 3.04-8.459 5.13-10.339 4.75-4.135 12.73-2.255 23.37-2.255 7.79 0 14.44-1.316 19.76.375 5.32 1.692 8.74 6.58 8.74 11.843C127 76.556 119.4 79 98.5 79z"/><path fill="#D84315" d="M99.827 69c0 1.2-.77 2-1.923 2-1.154 0-1.923-.8-1.923-2s.769-2 1.923-2 1.923.8 1.923 2zm2.885 5c.384-.4.384-1 0-1.4a.905.905 0 00-1.347 0c-1.73 1.8-5 1.8-6.73 0a.905.905 0 00-1.347 0c-.384.4-.384 1 0 1.4 1.347 1.4 2.885 2 4.808 2s3.27-.8 4.616-2z"/><path fill="#FFF" d="M89.182 61.5c0 4.722-2.423 8.5-5.591 8.5S78 66.222 78 61.5c0-4.722 2.423-8.5 5.59-8.5 3.17 0 5.592 3.778 5.592 8.5zm24.227-8.5c-3.168 0-5.59 3.778-5.59 8.5 0 4.722 2.422 8.5 5.59 8.5 3.168 0 5.591-3.778 5.591-8.5 0-4.722-2.423-8.5-5.59-8.5z"/><path fill="#6D4C41" d="M117 61.5c0 3.117-1.71 5.5-3.8 5.5s-3.8-2.383-3.8-5.5c0-.367 0-.917.19-1.283.19.733.95 1.283 1.71 1.283 1.14 0 1.9-.733 1.9-1.833s-.76-1.834-1.9-1.834c-.38 0-.76.184-1.14.367.76-1.283 1.71-2.2 3.04-2.2 2.09 0 3.8 2.383 3.8 5.5zM82.8 56c-1.33 0-2.28.917-3.04 2.2.38-.183.76-.367 1.14-.367 1.14 0 1.9.734 1.9 1.834s-.76 1.833-1.9 1.833c-.76 0-1.52-.55-1.71-1.283 0 .366-.19.916-.19 1.283 0 3.117 1.71 5.5 3.8 5.5s3.8-2.383 3.8-5.5-1.71-5.5-3.8-5.5z"/><path fill="#4051B5" d="M242.012 42v-6.024a10.83 10.83 0 001.68.144c.352 0 .68-.008.984-.024L247.724 42h3.936l-3.864-6.84a5.45 5.45 0 001.56-1.212 5.561 5.561 0 001.008-1.632c.24-.6.36-1.228.36-1.884 0-1.12-.272-2.092-.816-2.916-.544-.824-1.324-1.456-2.34-1.896-1.016-.44-2.22-.66-3.612-.66h-5.472V42h3.528zm1.872-8.856a11.8 11.8 0 01-1.872-.144v-5.016h1.872c1.024 0 1.816.224 2.376.672.56.448.84 1.08.84 1.896 0 .816-.28 1.452-.84 1.908-.56.456-1.352.684-2.376.684zm15.528 9.216c.864 0 1.68-.14 2.448-.42a6.192 6.192 0 002.016-1.188 4.847 4.847 0 001.296-1.848l-3-.96a3.219 3.219 0 01-1.164 1.176 3.092 3.092 0 01-1.572.408c-.832 0-1.52-.268-2.064-.804s-.888-1.276-1.032-2.22h9.096v-.84c0-1.008-.148-1.92-.444-2.736a6.21 6.21 0 00-1.26-2.112 5.543 5.543 0 00-1.956-1.368c-.76-.32-1.604-.48-2.532-.48a6.092 6.092 0 00-4.5 1.908A6.509 6.509 0 00253.412 33a7.167 7.167 0 00-.48 2.64c0 .976.16 1.876.48 2.7a6.38 6.38 0 001.344 2.136c.576.6 1.26 1.064 2.052 1.392.792.328 1.66.492 2.604.492zm2.568-8.112h-5.592c.16-.832.492-1.488.996-1.968s1.124-.72 1.86-.72c.72 0 1.324.24 1.812.72s.796 1.136.924 1.968zm8.904 12.408v-6.072c.432.56.968.996 1.608 1.308.64.312 1.352.468 2.136.468.848 0 1.64-.172 2.376-.516a5.832 5.832 0 001.92-1.44 6.792 6.792 0 001.272-2.148 7.573 7.573 0 00.456-2.664c0-.944-.148-1.816-.444-2.616-.296-.8-.708-1.5-1.236-2.1a5.729 5.729 0 00-1.848-1.404 5.28 5.28 0 00-2.304-.504c-.864 0-1.656.196-2.376.588a4.606 4.606 0 00-1.728 1.62l-.096-1.848h-3.096v17.328h3.36zm3.144-7.32c-.608 0-1.152-.16-1.632-.48-.48-.32-.86-.756-1.14-1.308-.28-.552-.42-1.18-.42-1.884s.14-1.332.42-1.884c.28-.552.66-.988 1.14-1.308.48-.32 1.024-.48 1.632-.48.608 0 1.152.16 1.632.48.48.32.86.756 1.14 1.308.28.552.42 1.18.42 1.884s-.14 1.332-.42 1.884c-.28.552-.66.988-1.14 1.308-.48.32-1.024.48-1.632.48zm14.928 3.024c.96 0 1.844-.168 2.652-.504a6.37 6.37 0 002.112-1.416 6.566 6.566 0 001.404-2.136 6.929 6.929 0 00.504-2.664c0-.96-.164-1.844-.492-2.652a6.4 6.4 0 00-1.38-2.112 6.36 6.36 0 00-2.088-1.404 6.688 6.688 0 00-2.616-.504c-.96 0-1.844.168-2.652.504a6.37 6.37 0 00-2.112 1.416 6.6 6.6 0 00-1.404 2.124c-.336.808-.504 1.692-.504 2.652 0 .96.164 1.848.492 2.664a6.37 6.37 0 001.38 2.124 6.36 6.36 0 002.088 1.404c.8.336 1.672.504 2.616.504zm.048-3.024c-.608 0-1.152-.16-1.632-.48-.48-.32-.86-.756-1.14-1.308-.28-.552-.42-1.18-.42-1.884s.14-1.332.42-1.884c.28-.552.66-.988 1.14-1.308.48-.32 1.024-.48 1.632-.48.608 0 1.152.16 1.632.48.48.32.86.756 1.14 1.308.28.552.42 1.18.42 1.884s-.14 1.332-.42 1.884c-.28.552-.66.988-1.14 1.308-.48.32-1.024.48-1.632.48zM301.196 42v-6.216c0-1.04.248-1.844.744-2.412.496-.568 1.208-.852 2.136-.852.192 0 .38.012.564.036.184.024.364.068.54.132l.36-3.312a3.627 3.627 0 00-.6-.156 3.816 3.816 0 00-.672-.06c-.736 0-1.376.18-1.92.54-.544.36-.976.876-1.296 1.548l-.12-1.92h-3.096V42h3.36zm11.664.36a5.794 5.794 0 003.048-.84l-.6-2.52a5.694 5.694 0 01-.9.312c-.312.08-.604.12-.876.12-.528 0-.92-.164-1.176-.492-.256-.328-.384-.796-.384-1.404V32.04h3.456v-2.712h-3.456v-4.32h-3.36v4.32h-2.16v2.712h2.16v5.904c0 .944.172 1.744.516 2.4a3.533 3.533 0 001.464 1.5c.632.344 1.388.516 2.268.516zm15.528 0a5.794 5.794 0 003.048-.84l-.6-2.52a5.694 5.694 0 01-.9.312c-.312.08-.604.12-.876.12-.528 0-.92-.164-1.176-.492-.256-.328-.384-.796-.384-1.404V32.04h3.456v-2.712H327.5v-4.32h-3.36v4.32h-2.16v2.712h2.16v5.904c0 .944.172 1.744.516 2.4a3.533 3.533 0 001.464 1.5c.632.344 1.388.516 2.268.516zm8.376-.36v-7.272c0-.528.112-1 .336-1.416.224-.416.528-.74.912-.972.384-.232.832-.348 1.344-.348.704 0 1.256.252 1.656.756.4.504.6 1.196.6 2.076V42h3.36v-7.608c0-1.104-.192-2.064-.576-2.88-.384-.816-.924-1.444-1.62-1.884-.696-.44-1.508-.66-2.436-.66-.784 0-1.48.156-2.088.468a4.06 4.06 0 00-1.488 1.284v-6.624h-3.36V42h3.36zm16.896.36c.864 0 1.68-.14 2.448-.42a6.192 6.192 0 002.016-1.188 4.847 4.847 0 001.296-1.848l-3-.96a3.219 3.219 0 01-1.164 1.176 3.092 3.092 0 01-1.572.408c-.832 0-1.52-.268-2.064-.804s-.888-1.276-1.032-2.22h9.096v-.84c0-1.008-.148-1.92-.444-2.736a6.21 6.21 0 00-1.26-2.112 5.543 5.543 0 00-1.956-1.368c-.76-.32-1.604-.48-2.532-.48a6.092 6.092 0 00-4.5 1.908A6.509 6.509 0 00347.66 33a7.167 7.167 0 00-.48 2.64c0 .976.16 1.876.48 2.7a6.38 6.38 0 001.344 2.136c.576.6 1.26 1.064 2.052 1.392.792.328 1.66.492 2.604.492zm2.568-8.112h-5.592c.16-.832.492-1.488.996-1.968s1.124-.72 1.86-.72c.72 0 1.324.24 1.812.72s.796 1.136.924 1.968zM370.58 42V24.96h-3.576V42h3.576zm7.464.36c.752 0 1.44-.104 2.064-.312a5.02 5.02 0 001.632-.888c.464-.384.82-.832 1.068-1.344.248-.512.372-1.08.372-1.704 0-1.024-.36-1.868-1.08-2.532-.72-.664-1.76-1.116-3.12-1.356l-.672-.12c-.752-.128-1.284-.3-1.596-.516-.312-.216-.468-.484-.468-.804 0-.368.16-.672.48-.912.32-.24.728-.36 1.224-.36.48 0 .9.136 1.26.408.36.272.62.648.78 1.128l3-.624a4.178 4.178 0 00-.96-1.848 4.648 4.648 0 00-1.74-1.188c-.696-.28-1.468-.42-2.316-.42-.96 0-1.808.176-2.544.528-.736.352-1.312.836-1.728 1.452-.416.616-.624 1.324-.624 2.124 0 1.008.356 1.84 1.068 2.496.712.656 1.756 1.104 3.132 1.344l.672.12c.72.128 1.236.308 1.548.54.312.232.468.524.468.876 0 .416-.176.744-.528.984-.352.24-.8.36-1.344.36-.576 0-1.072-.144-1.488-.432a2.216 2.216 0 01-.864-1.176l-3.024.648c.192.72.54 1.344 1.044 1.872s1.12.936 1.848 1.224c.728.288 1.54.432 2.436.432zm11.784 0c.752 0 1.44-.104 2.064-.312a5.02 5.02 0 001.632-.888c.464-.384.82-.832 1.068-1.344.248-.512.372-1.08.372-1.704 0-1.024-.36-1.868-1.08-2.532-.72-.664-1.76-1.116-3.12-1.356l-.672-.12c-.752-.128-1.284-.3-1.596-.516-.312-.216-.468-.484-.468-.804 0-.368.16-.672.48-.912.32-.24.728-.36 1.224-.36.48 0 .9.136 1.26.408.36.272.62.648.78 1.128l3-.624a4.178 4.178 0 00-.96-1.848 4.648 4.648 0 00-1.74-1.188c-.696-.28-1.468-.42-2.316-.42-.96 0-1.808.176-2.544.528-.736.352-1.312.836-1.728 1.452-.416.616-.624 1.324-.624 2.124 0 1.008.356 1.84 1.068 2.496.712.656 1.756 1.104 3.132 1.344l.672.12c.72.128 1.236.308 1.548.54.312.232.468.524.468.876 0 .416-.176.744-.528.984-.352.24-.8.36-1.344.36-.576 0-1.072-.144-1.488-.432a2.216 2.216 0 01-.864-1.176l-3.024.648c.192.72.54 1.344 1.044 1.872s1.12.936 1.848 1.224c.728.288 1.54.432 2.436.432zm12.936 0c.88 0 1.676-.144 2.388-.432a5.282 5.282 0 001.836-1.224 5.349 5.349 0 001.176-1.896c.272-.736.408-1.56.408-2.472v-7.008h-3.36v7.08c0 .912-.216 1.628-.648 2.148-.432.52-1.016.78-1.752.78s-1.32-.26-1.752-.78c-.432-.52-.648-1.236-.648-2.148v-7.08h-3.36v7.008c0 1.232.236 2.3.708 3.204a5.019 5.019 0 001.992 2.088c.856.488 1.86.732 3.012.732zm14.496 0c.864 0 1.68-.14 2.448-.42a6.192 6.192 0 002.016-1.188 4.847 4.847 0 001.296-1.848l-3-.96a3.219 3.219 0 01-1.164 1.176 3.092 3.092 0 01-1.572.408c-.832 0-1.52-.268-2.064-.804s-.888-1.276-1.032-2.22h9.096v-.84c0-1.008-.148-1.92-.444-2.736a6.21 6.21 0 00-1.26-2.112 5.543 5.543 0 00-1.956-1.368c-.76-.32-1.604-.48-2.532-.48a6.092 6.092 0 00-4.5 1.908A6.509 6.509 0 00411.26 33a7.167 7.167 0 00-.48 2.64c0 .976.16 1.876.48 2.7a6.38 6.38 0 001.344 2.136c.576.6 1.26 1.064 2.052 1.392.792.328 1.66.492 2.604.492zm2.568-8.112h-5.592c.16-.832.492-1.488.996-1.968s1.124-.72 1.86-.72c.72 0 1.324.24 1.812.72s.796 1.136.924 1.968zm12.24-6.432c.352 0 .676-.084.972-.252.296-.168.528-.396.696-.684.168-.288.252-.616.252-.984s-.084-.696-.252-.984a1.843 1.843 0 00-.696-.684 1.935 1.935 0 00-.972-.252c-.352 0-.676.084-.972.252a1.843 1.843 0 00-.696.684 1.916 1.916 0 00-.252.984c0 .368.084.696.252.984.168.288.4.516.696.684.296.168.62.252.972.252zM433.748 42V29.328h-3.36V42h3.36zm6.048 0v-7.272c0-.528.112-1 .336-1.416.224-.416.528-.74.912-.972.384-.232.832-.348 1.344-.348.704 0 1.256.252 1.656.756.4.504.6 1.196.6 2.076V42h3.36v-7.608c0-1.104-.192-2.064-.576-2.88-.384-.816-.924-1.444-1.62-1.884-.696-.44-1.508-.66-2.436-.66-.832 0-1.572.18-2.22.54a4.032 4.032 0 00-1.524 1.452l-.096-1.632h-3.096V42h3.36zm22.008.36c.96 0 1.844-.168 2.652-.504a6.37 6.37 0 002.112-1.416 6.566 6.566 0 001.404-2.136 6.929 6.929 0 00.504-2.664c0-.96-.164-1.844-.492-2.652a6.4 6.4 0 00-1.38-2.112 6.36 6.36 0 00-2.088-1.404 6.688 6.688 0 00-2.616-.504c-.96 0-1.844.168-2.652.504a6.37 6.37 0 00-2.112 1.416 6.6 6.6 0 00-1.404 2.124c-.336.808-.504 1.692-.504 2.652 0 .96.164 1.848.492 2.664a6.37 6.37 0 001.38 2.124 6.36 6.36 0 002.088 1.404c.8.336 1.672.504 2.616.504zm.048-3.024c-.608 0-1.152-.16-1.632-.48-.48-.32-.86-.756-1.14-1.308-.28-.552-.42-1.18-.42-1.884s.14-1.332.42-1.884c.28-.552.66-.988 1.14-1.308.48-.32 1.024-.48 1.632-.48.608 0 1.152.16 1.632.48.48.32.86.756 1.14 1.308.28.552.42 1.18.42 1.884s-.14 1.332-.42 1.884c-.28.552-.66.988-1.14 1.308-.48.32-1.024.48-1.632.48zm14.544 3.024c.88 0 1.676-.144 2.388-.432a5.282 5.282 0 001.836-1.224 5.349 5.349 0 001.176-1.896c.272-.736.408-1.56.408-2.472v-7.008h-3.36v7.08c0 .912-.216 1.628-.648 2.148-.432.52-1.016.78-1.752.78s-1.32-.26-1.752-.78c-.432-.52-.648-1.236-.648-2.148v-7.08h-3.36v7.008c0 1.232.236 2.3.708 3.204a5.019 5.019 0 001.992 2.088c.856.488 1.86.732 3.012.732zm11.856-.36v-6.216c0-1.04.248-1.844.744-2.412.496-.568 1.208-.852 2.136-.852.192 0 .38.012.564.036.184.024.364.068.54.132l.36-3.312a3.627 3.627 0 00-.6-.156 3.816 3.816 0 00-.672-.06c-.736 0-1.376.18-1.92.54-.544.36-.976.876-1.296 1.548l-.12-1.92h-3.096V42h3.36zM267.86 73.48c1.216 0 2.336-.196 3.36-.588a7.619 7.619 0 002.64-1.668 7.58 7.58 0 001.716-2.568c.408-.992.612-2.08.612-3.264v-1.8h-7.92v2.952h4.248c-.096.736-.344 1.376-.744 1.92s-.92.968-1.56 1.272c-.64.304-1.368.456-2.184.456-.768 0-1.472-.14-2.112-.42a4.934 4.934 0 01-1.668-1.188 5.357 5.357 0 01-1.092-1.824 6.695 6.695 0 01-.384-2.304c0-.816.128-1.568.384-2.256a5.652 5.652 0 011.08-1.812 4.801 4.801 0 011.632-1.2 4.925 4.925 0 012.04-.42c.896 0 1.684.208 2.364.624.68.416 1.236 1.008 1.668 1.776l3.456-1.056a7.194 7.194 0 00-1.74-2.496 7.826 7.826 0 00-2.58-1.584c-.976-.368-2.032-.552-3.168-.552a8.937 8.937 0 00-2.844.444 8.88 8.88 0 00-2.436 1.248 8.205 8.205 0 00-1.896 1.932 9.062 9.062 0 00-1.224 2.496 9.67 9.67 0 00-.432 2.928c0 1.04.144 2.012.432 2.916a8.93 8.93 0 001.212 2.46 8.308 8.308 0 001.872 1.908 8.46 8.46 0 002.424 1.236 9.164 9.164 0 002.844.432zm12.288-14.664c.352 0 .676-.084.972-.252.296-.168.528-.396.696-.684.168-.288.252-.616.252-.984s-.084-.696-.252-.984a1.843 1.843 0 00-.696-.684 1.935 1.935 0 00-.972-.252c-.352 0-.676.084-.972.252a1.843 1.843 0 00-.696.684 1.916 1.916 0 00-.252.984c0 .368.084.696.252.984.168.288.4.516.696.684.296.168.62.252.972.252zM281.828 73V60.328h-3.36V73h3.36zm8.184.36a5.794 5.794 0 003.048-.84l-.6-2.52a5.694 5.694 0 01-.9.312c-.312.08-.604.12-.876.12-.528 0-.92-.164-1.176-.492-.256-.328-.384-.796-.384-1.404V63.04h3.456v-2.712h-3.456v-4.32h-3.36v4.32h-2.16v2.712h2.16v5.904c0 .944.172 1.744.516 2.4a3.533 3.533 0 001.464 1.5c.632.344 1.388.516 2.268.516zm8.808-.36v-7.224h7.536V73h3.576V55.96h-3.576v6.648h-7.536V55.96h-3.576V73h3.576zm19.728.36c.88 0 1.676-.144 2.388-.432a5.282 5.282 0 001.836-1.224 5.349 5.349 0 001.176-1.896c.272-.736.408-1.56.408-2.472v-7.008h-3.36v7.08c0 .912-.216 1.628-.648 2.148-.432.52-1.016.78-1.752.78s-1.32-.26-1.752-.78c-.432-.52-.648-1.236-.648-2.148v-7.08h-3.36v7.008c0 1.232.236 2.3.708 3.204a5.019 5.019 0 001.992 2.088c.856.488 1.86.732 3.012.732zm15.6 0c.848 0 1.64-.172 2.376-.516a5.832 5.832 0 001.92-1.44 6.792 6.792 0 001.272-2.148 7.573 7.573 0 00.456-2.664c0-.944-.148-1.816-.444-2.616-.296-.8-.708-1.5-1.236-2.1a5.729 5.729 0 00-1.848-1.404 5.28 5.28 0 00-2.304-.504c-.816 0-1.564.176-2.244.528a4.83 4.83 0 00-1.692 1.44v-6.84h-3.36V73h3.096l.096-1.656a4.48 4.48 0 001.656 1.488c.672.352 1.424.528 2.256.528zm-.6-3.024c-.608 0-1.152-.16-1.632-.48-.48-.32-.86-.756-1.14-1.308-.28-.552-.42-1.18-.42-1.884s.14-1.332.42-1.884c.28-.552.66-.988 1.14-1.308.48-.32 1.024-.48 1.632-.48.608 0 1.152.16 1.632.48.48.32.86.756 1.14 1.308.28.552.42 1.18.42 1.884s-.14 1.332-.42 1.884c-.28.552-.66.988-1.14 1.308-.48.32-1.024.48-1.632.48zM351.14 73v-6.024a10.83 10.83 0 001.68.144c.352 0 .68-.008.984-.024L356.852 73h3.936l-3.864-6.84a5.45 5.45 0 001.56-1.212 5.561 5.561 0 001.008-1.632c.24-.6.36-1.228.36-1.884 0-1.12-.272-2.092-.816-2.916-.544-.824-1.324-1.456-2.34-1.896-1.016-.44-2.22-.66-3.612-.66h-5.472V73h3.528zm1.872-8.856A11.8 11.8 0 01351.14 64v-5.016h1.872c1.024 0 1.816.224 2.376.672.56.448.84 1.08.84 1.896 0 .816-.28 1.452-.84 1.908-.56.456-1.352.684-2.376.684zm15.528 9.216c.864 0 1.68-.14 2.448-.42a6.192 6.192 0 002.016-1.188 4.847 4.847 0 001.296-1.848l-3-.96a3.219 3.219 0 01-1.164 1.176 3.092 3.092 0 01-1.572.408c-.832 0-1.52-.268-2.064-.804s-.888-1.276-1.032-2.22h9.096v-.84c0-1.008-.148-1.92-.444-2.736a6.21 6.21 0 00-1.26-2.112 5.543 5.543 0 00-1.956-1.368c-.76-.32-1.604-.48-2.532-.48a6.092 6.092 0 00-4.5 1.908A6.509 6.509 0 00362.54 64a7.167 7.167 0 00-.48 2.64c0 .976.16 1.876.48 2.7a6.38 6.38 0 001.344 2.136c.576.6 1.26 1.064 2.052 1.392.792.328 1.66.492 2.604.492zm2.568-8.112h-5.592c.16-.832.492-1.488.996-1.968s1.124-.72 1.86-.72c.72 0 1.324.24 1.812.72s.796 1.136.924 1.968zm8.904 12.408v-6.072c.432.56.968.996 1.608 1.308.64.312 1.352.468 2.136.468.848 0 1.64-.172 2.376-.516a5.832 5.832 0 001.92-1.44 6.792 6.792 0 001.272-2.148 7.573 7.573 0 00.456-2.664c0-.944-.148-1.816-.444-2.616-.296-.8-.708-1.5-1.236-2.1a5.729 5.729 0 00-1.848-1.404 5.28 5.28 0 00-2.304-.504c-.864 0-1.656.196-2.376.588a4.606 4.606 0 00-1.728 1.62l-.096-1.848h-3.096v17.328h3.36zm3.144-7.32c-.608 0-1.152-.16-1.632-.48-.48-.32-.86-.756-1.14-1.308-.28-.552-.42-1.18-.42-1.884s.14-1.332.42-1.884c.28-.552.66-.988 1.14-1.308.48-.32 1.024-.48 1.632-.48.608 0 1.152.16 1.632.48.48.32.86.756 1.14 1.308.28.552.42 1.18.42 1.884s-.14 1.332-.42 1.884c-.28.552-.66.988-1.14 1.308-.48.32-1.024.48-1.632.48zm14.928 3.024c.96 0 1.844-.168 2.652-.504a6.37 6.37 0 002.112-1.416 6.566 6.566 0 001.404-2.136 6.929 6.929 0 00.504-2.664c0-.96-.164-1.844-.492-2.652a6.4 6.4 0 00-1.38-2.112 6.36 6.36 0 00-2.088-1.404 6.688 6.688 0 00-2.616-.504c-.96 0-1.844.168-2.652.504a6.37 6.37 0 00-2.112 1.416 6.6 6.6 0 00-1.404 2.124c-.336.808-.504 1.692-.504 2.652 0 .96.164 1.848.492 2.664a6.37 6.37 0 001.38 2.124 6.36 6.36 0 002.088 1.404c.8.336 1.672.504 2.616.504zm.048-3.024c-.608 0-1.152-.16-1.632-.48-.48-.32-.86-.756-1.14-1.308-.28-.552-.42-1.18-.42-1.884s.14-1.332.42-1.884c.28-.552.66-.988 1.14-1.308.48-.32 1.024-.48 1.632-.48.608 0 1.152.16 1.632.48.48.32.86.756 1.14 1.308.28.552.42 1.18.42 1.884s-.14 1.332-.42 1.884c-.28.552-.66.988-1.14 1.308-.48.32-1.024.48-1.632.48zm13.392 3.024c.752 0 1.44-.104 2.064-.312a5.02 5.02 0 001.632-.888c.464-.384.82-.832 1.068-1.344.248-.512.372-1.08.372-1.704 0-1.024-.36-1.868-1.08-2.532-.72-.664-1.76-1.116-3.12-1.356l-.672-.12c-.752-.128-1.284-.3-1.596-.516-.312-.216-.468-.484-.468-.804 0-.368.16-.672.48-.912.32-.24.728-.36 1.224-.36.48 0 .9.136 1.26.408.36.272.62.648.78 1.128l3-.624a4.178 4.178 0 00-.96-1.848 4.648 4.648 0 00-1.74-1.188c-.696-.28-1.468-.42-2.316-.42-.96 0-1.808.176-2.544.528-.736.352-1.312.836-1.728 1.452-.416.616-.624 1.324-.624 2.124 0 1.008.356 1.84 1.068 2.496.712.656 1.756 1.104 3.132 1.344l.672.12c.72.128 1.236.308 1.548.54.312.232.468.524.468.876 0 .416-.176.744-.528.984-.352.24-.8.36-1.344.36-.576 0-1.072-.144-1.488-.432a2.216 2.216 0 01-.864-1.176l-3.024.648c.192.72.54 1.344 1.044 1.872s1.12.936 1.848 1.224c.728.288 1.54.432 2.436.432zm8.904-14.544c.352 0 .676-.084.972-.252.296-.168.528-.396.696-.684.168-.288.252-.616.252-.984s-.084-.696-.252-.984a1.843 1.843 0 00-.696-.684 1.935 1.935 0 00-.972-.252c-.352 0-.676.084-.972.252a1.843 1.843 0 00-.696.684 1.916 1.916 0 00-.252.984c0 .368.084.696.252.984.168.288.4.516.696.684.296.168.62.252.972.252zM422.108 73V60.328h-3.36V73h3.36zm8.184.36a5.794 5.794 0 003.048-.84l-.6-2.52a5.694 5.694 0 01-.9.312c-.312.08-.604.12-.876.12-.528 0-.92-.164-1.176-.492-.256-.328-.384-.796-.384-1.404V63.04h3.456v-2.712h-3.456v-4.32h-3.36v4.32h-2.16v2.712h2.16v5.904c0 .944.172 1.744.516 2.4a3.533 3.533 0 001.464 1.5c.632.344 1.388.516 2.268.516zm11.112 0c.96 0 1.844-.168 2.652-.504a6.37 6.37 0 002.112-1.416 6.566 6.566 0 001.404-2.136 6.929 6.929 0 00.504-2.664c0-.96-.164-1.844-.492-2.652a6.4 6.4 0 00-1.38-2.112 6.36 6.36 0 00-2.088-1.404 6.688 6.688 0 00-2.616-.504c-.96 0-1.844.168-2.652.504a6.37 6.37 0 00-2.112 1.416 6.6 6.6 0 00-1.404 2.124c-.336.808-.504 1.692-.504 2.652 0 .96.164 1.848.492 2.664a6.37 6.37 0 001.38 2.124 6.36 6.36 0 002.088 1.404c.8.336 1.672.504 2.616.504zm.048-3.024c-.608 0-1.152-.16-1.632-.48-.48-.32-.86-.756-1.14-1.308-.28-.552-.42-1.18-.42-1.884s.14-1.332.42-1.884c.28-.552.66-.988 1.14-1.308.48-.32 1.024-.48 1.632-.48.608 0 1.152.16 1.632.48.48.32.86.756 1.14 1.308.28.552.42 1.18.42 1.884s-.14 1.332-.42 1.884c-.28.552-.66.988-1.14 1.308-.48.32-1.024.48-1.632.48zM453.644 73v-6.216c0-1.04.248-1.844.744-2.412.496-.568 1.208-.852 2.136-.852.192 0 .38.012.564.036.184.024.364.068.54.132l.36-3.312a3.627 3.627 0 00-.6-.156 3.816 3.816 0 00-.672-.06c-.736 0-1.376.18-1.92.54-.544.36-.976.876-1.296 1.548l-.12-1.92h-3.096V73h3.36zm8.28 4.896c1.056 0 1.956-.296 2.7-.888.744-.592 1.356-1.528 1.836-2.808l5.208-13.872h-3.552l-2.712 8.976-3-8.976h-3.672l5.112 12.552-.216.552c-.224.544-.508.94-.852 1.188a2.018 2.018 0 01-1.212.372c-.208 0-.432-.028-.672-.084a3.36 3.36 0 01-.624-.204l-.648 2.64c.336.192.696.332 1.08.42.384.088.792.132 1.224.132z"/></g></g></svg>