<svg xmlns:xlink="http://www.w3.org/1999/xlink" viewBox="0 0 574 537"><defs><rect id="b" width="554" height="517" x="0" y="0" rx="20"/><filter id="a" width="105.6%" height="106%" x="-2.6%" y="-3.2%" filterUnits="objectBoundingBox"><feMorphology in="SourceAlpha" operator="dilate" radius="1" result="shadowSpreadOuter1"/><feOffset dx="1" dy="-1" in="shadowSpreadOuter1" result="shadowOffsetOuter1"/><feGaussianBlur in="shadowOffsetOuter1" result="shadowBlurOuter1" stdDeviation="4"/><feColorMatrix in="shadowBlurOuter1" values="0 0 0 0 0 0 0 0 0 0 0 0 0 0 0 0 0 0 0.121394231 0"/></filter><rect id="c" width="206" height="180" x="317" y="29" rx="13"/><rect id="d" width="239" height="143" x="290" y="339" rx="13"/></defs><g fill="none" fill-rule="evenodd" transform="translate(9 11)"><use fill="#000" filter="url(#a)" xlink:href="#b"/><use fill="#C5CAE9" xlink:href="#b"/><path fill="#4051B5" fill-opacity=".8" fill-rule="nonzero" d="M48.58 60.39c.97 0 1.863-.143 2.678-.429a6.348 6.348 0 002.132-1.235 5.74 5.74 0 001.417-1.898c.338-.728.507-1.534.507-2.418 0-1.404-.455-2.557-1.365-3.458-.91-.901-2.31-1.56-4.199-1.976l-.832-.182c-.919-.208-1.612-.472-2.08-.793-.468-.32-.702-.784-.702-1.391 0-.399.108-.758.325-1.079a2.22 2.22 0 01.884-.754 2.836 2.836 0 011.261-.273c.676 0 1.27.186 1.781.559.511.373.871.906 1.079 1.599l3.562-.78c-.208-.97-.615-1.811-1.222-2.522a6.042 6.042 0 00-2.236-1.638 7.143 7.143 0 00-2.86-.572 7.27 7.27 0 00-2.522.429c-.78.286-1.46.685-2.041 1.196a5.568 5.568 0 00-1.365 1.807 5.264 5.264 0 00-.494 2.288c0 1.335.45 2.466 1.352 3.393.901.927 2.305 1.599 4.212 2.015l.832.182c.97.225 1.673.516 2.106.871.433.355.65.819.65 1.391 0 .45-.117.85-.351 1.196a2.37 2.37 0 01-.988.819c-.425.2-.914.299-1.469.299-.78 0-1.452-.2-2.015-.598-.563-.399-.958-.953-1.183-1.664l-3.614.78c.243 1.005.689 1.868 1.339 2.587a6.582 6.582 0 002.366 1.664c.927.39 1.946.585 3.055.585zm15.574 0c1.04 0 1.998-.182 2.873-.546a6.901 6.901 0 002.288-1.534 7.113 7.113 0 001.521-2.314c.364-.884.546-1.846.546-2.886s-.178-1.998-.533-2.873a6.933 6.933 0 00-1.495-2.288 6.89 6.89 0 00-2.262-1.521c-.867-.364-1.811-.546-2.834-.546-1.04 0-1.998.182-2.873.546a6.901 6.901 0 00-2.288 1.534 7.15 7.15 0 00-1.521 2.301c-.364.875-.546 1.833-.546 2.873 0 1.04.178 2.002.533 2.886a6.901 6.901 0 001.495 2.301 6.89 6.89 0 002.262 1.521c.867.364 1.811.546 2.834.546zm.052-3.276a3.115 3.115 0 01-1.768-.52 3.646 3.646 0 01-1.235-1.417c-.303-.598-.455-1.278-.455-2.041 0-.763.152-1.443.455-2.041a3.646 3.646 0 011.235-1.417c.52-.347 1.11-.52 1.768-.52.659 0 1.248.173 1.768.52.52.347.932.819 1.235 1.417.303.598.455 1.278.455 2.041 0 .763-.152 1.443-.455 2.041a3.646 3.646 0 01-1.235 1.417c-.52.347-1.11.52-1.768.52zM77.414 60v-6.734c0-1.127.269-1.998.806-2.613s1.309-.923 2.314-.923c.208 0 .412.013.611.039.2.026.394.074.585.143l.39-3.588a3.929 3.929 0 00-.65-.169 4.134 4.134 0 00-.728-.065c-.797 0-1.49.195-2.08.585-.59.39-1.057.949-1.404 1.677l-.13-2.08h-3.354V60h3.64zm10.322 0v-6.734c0-1.127.269-1.998.806-2.613s1.309-.923 2.314-.923c.208 0 .412.013.611.039.2.026.394.074.585.143l.39-3.588a3.929 3.929 0 00-.65-.169 4.134 4.134 0 00-.728-.065c-.797 0-1.49.195-2.08.585-.59.39-1.057.949-1.404 1.677l-.13-2.08h-3.354V60h3.64zm8.97 5.304c1.144 0 2.119-.32 2.925-.962.806-.641 1.469-1.655 1.989-3.042l5.642-15.028h-3.848l-2.938 9.724-3.25-9.724h-3.978l5.538 13.598-.234.598c-.243.59-.55 1.018-.923 1.287-.373.269-.81.403-1.313.403-.225 0-.468-.03-.728-.091a3.64 3.64 0 01-.676-.221l-.702 2.86c.364.208.754.36 1.17.455.416.095.858.143 1.326.143zm16.016-11.05l.234-12.714h-3.952l.234 12.714h3.484zm-1.742 5.85a2.19 2.19 0 001.118-.286c.33-.19.594-.455.793-.793.2-.338.299-.715.299-1.131 0-.416-.1-.793-.299-1.131a2.174 2.174 0 00-.793-.793 2.19 2.19 0 00-1.118-.286 2.19 2.19 0 00-1.118.286c-.33.19-.594.455-.793.793-.2.338-.299.715-.299 1.131 0 .416.1.793.299 1.131.2.338.464.602.793.793.33.19.702.286 1.118.286zM132.95 60v-3.432h-7.54V41.54h-3.874V60h11.414zm9.1.39c1.04 0 1.998-.182 2.873-.546a6.901 6.901 0 002.288-1.534 7.113 7.113 0 001.521-2.314c.364-.884.546-1.846.546-2.886s-.178-1.998-.533-2.873a6.933 6.933 0 00-1.495-2.288 6.89 6.89 0 00-2.262-1.521c-.867-.364-1.811-.546-2.834-.546-1.04 0-1.998.182-2.873.546a6.901 6.901 0 00-2.288 1.534 7.15 7.15 0 00-1.521 2.301c-.364.875-.546 1.833-.546 2.873 0 1.04.178 2.002.533 2.886a6.901 6.901 0 001.495 2.301 6.89 6.89 0 002.262 1.521c.867.364 1.811.546 2.834.546zm.052-3.276a3.115 3.115 0 01-1.768-.52 3.646 3.646 0 01-1.235-1.417c-.303-.598-.455-1.278-.455-2.041 0-.763.152-1.443.455-2.041a3.646 3.646 0 011.235-1.417c.52-.347 1.11-.52 1.768-.52.659 0 1.248.173 1.768.52.52.347.932.819 1.235 1.417.303.598.455 1.278.455 2.041 0 .763-.152 1.443-.455 2.041a3.646 3.646 0 01-1.235 1.417c-.52.347-1.11.52-1.768.52zm16.172 3.276c1.04 0 1.998-.182 2.873-.546a6.901 6.901 0 002.288-1.534 7.113 7.113 0 001.521-2.314c.364-.884.546-1.846.546-2.886s-.178-1.998-.533-2.873a6.933 6.933 0 00-1.495-2.288 6.89 6.89 0 00-2.262-1.521c-.867-.364-1.811-.546-2.834-.546-1.04 0-1.998.182-2.873.546a6.901 6.901 0 00-2.288 1.534 7.15 7.15 0 00-1.521 2.301c-.364.875-.546 1.833-.546 2.873 0 1.04.178 2.002.533 2.886a6.901 6.901 0 001.495 2.301 6.89 6.89 0 002.262 1.521c.867.364 1.811.546 2.834.546zm.052-3.276a3.115 3.115 0 01-1.768-.52 3.646 3.646 0 01-1.235-1.417c-.303-.598-.455-1.278-.455-2.041 0-.763.152-1.443.455-2.041a3.646 3.646 0 011.235-1.417c.52-.347 1.11-.52 1.768-.52.659 0 1.248.173 1.768.52.52.347.932.819 1.235 1.417.303.598.455 1.278.455 2.041 0 .763-.152 1.443-.455 2.041a3.646 3.646 0 01-1.235 1.417c-.52.347-1.11.52-1.768.52zM171.456 60v-6.838L176.838 60h4.602l-6.344-7.644 5.72-6.084h-4.264l-5.096 5.59V40.604h-3.562V60h3.562zm16.484.39c.815 0 1.56-.113 2.236-.338a5.439 5.439 0 001.768-.962 4.328 4.328 0 001.157-1.456c.269-.555.403-1.17.403-1.846 0-1.11-.39-2.024-1.17-2.743-.78-.72-1.907-1.209-3.38-1.469l-.728-.13c-.815-.139-1.391-.325-1.729-.559-.338-.234-.507-.524-.507-.871 0-.399.173-.728.52-.988.347-.26.789-.39 1.326-.39a2.2 2.2 0 011.365.442c.39.295.672.702.845 1.222l3.25-.676a4.526 4.526 0 00-1.04-2.002 5.035 5.035 0 00-1.885-1.287c-.754-.303-1.59-.455-2.509-.455-1.04 0-1.959.19-2.756.572-.797.381-1.421.906-1.872 1.573-.45.667-.676 1.434-.676 2.301 0 1.092.386 1.993 1.157 2.704.771.71 1.902 1.196 3.393 1.456l.728.13c.78.139 1.339.334 1.677.585.338.251.507.568.507.949 0 .45-.19.806-.572 1.066-.381.26-.867.39-1.456.39-.624 0-1.161-.156-1.612-.468a2.4 2.4 0 01-.936-1.274l-3.276.702c.208.78.585 1.456 1.131 2.028a5.544 5.544 0 002.002 1.326c.789.312 1.668.468 2.639.468zm16.9-.39V40.604h-3.64V60h3.64zm4.732-15.366c.381 0 .732-.091 1.053-.273a2.002 2.002 0 001.027-1.807c0-.399-.091-.754-.273-1.066a1.997 1.997 0 00-.754-.741 2.097 2.097 0 00-1.053-.273c-.381 0-.732.091-1.053.273-.32.182-.572.429-.754.741a2.076 2.076 0 00-.273 1.066c0 .399.091.754.273 1.066.182.312.433.559.754.741.32.182.672.273 1.053.273zM211.392 60V46.272h-3.64V60h3.64zm6.474 0v-6.838L223.248 60h4.602l-6.344-7.644 5.72-6.084h-4.264l-5.096 5.59V40.604h-3.562V60h3.562zm18.044.39a7.69 7.69 0 002.652-.455 6.709 6.709 0 002.184-1.287 5.251 5.251 0 001.404-2.002l-3.25-1.04c-.33.555-.75.98-1.261 1.274a3.35 3.35 0 01-1.703.442c-.901 0-1.647-.29-2.236-.871-.59-.58-.962-1.382-1.118-2.405h9.854v-.91c0-1.092-.16-2.08-.481-2.964a6.728 6.728 0 00-1.365-2.288 6.005 6.005 0 00-2.119-1.482c-.823-.347-1.738-.52-2.743-.52a6.6 6.6 0 00-4.875 2.067 7.051 7.051 0 00-1.443 2.301 7.764 7.764 0 00-.52 2.86c0 1.057.173 2.032.52 2.925a6.912 6.912 0 001.456 2.314 6.48 6.48 0 002.223 1.508c.858.355 1.798.533 2.821.533zm2.782-8.788h-6.058c.173-.901.533-1.612 1.079-2.132.546-.52 1.218-.78 2.015-.78.78 0 1.434.26 1.963.78.529.52.862 1.23 1.001 2.132zM256.814 60l2.756-9.282L262.326 60h3.354l4.55-13.728h-3.614l-2.626 9.308-2.782-9.308h-3.146l-2.782 9.282-2.574-9.282h-3.744L253.512 60h3.302zm21.658.39a7.69 7.69 0 002.652-.455 6.709 6.709 0 002.184-1.287 5.251 5.251 0 001.404-2.002l-3.25-1.04c-.33.555-.75.98-1.261 1.274a3.35 3.35 0 01-1.703.442c-.901 0-1.647-.29-2.236-.871-.59-.58-.962-1.382-1.118-2.405h9.854v-.91c0-1.092-.16-2.08-.481-2.964a6.728 6.728 0 00-1.365-2.288 6.005 6.005 0 00-2.119-1.482c-.823-.347-1.738-.52-2.743-.52a6.6 6.6 0 00-4.875 2.067 7.051 7.051 0 00-1.443 2.301 7.764 7.764 0 00-.52 2.86c0 1.057.173 2.032.52 2.925a6.912 6.912 0 001.456 2.314 6.48 6.48 0 002.223 1.508c.858.355 1.798.533 2.821.533zm2.782-8.788h-6.058c.173-.901.533-1.612 1.079-2.132.546-.52 1.218-.78 2.015-.78.78 0 1.434.26 1.963.78.529.52.862 1.23 1.001 2.132zM87.515 94v-7.878c0-.572.121-1.083.364-1.534.243-.45.572-.802.988-1.053.416-.251.901-.377 1.456-.377.763 0 1.36.273 1.794.819.433.546.65 1.296.65 2.249V94h3.64v-8.242c0-1.196-.208-2.236-.624-3.12-.416-.884-1.001-1.564-1.755-2.041-.754-.477-1.634-.715-2.639-.715-.85 0-1.603.169-2.262.507a4.397 4.397 0 00-1.612 1.391v-7.176h-3.64V94h3.64zm16.042.39c.953 0 1.777-.186 2.47-.559.693-.373 1.222-.854 1.586-1.443l.104 1.612h3.25v-8.32c0-.867-.143-1.651-.429-2.353a5.398 5.398 0 00-1.222-1.833 5.387 5.387 0 00-1.885-1.196c-.728-.277-1.534-.416-2.418-.416a7.01 7.01 0 00-2.652.494 5.763 5.763 0 00-2.067 1.391 4.543 4.543 0 00-1.131 2.093l3.25.65c.19-.52.52-.923.988-1.209a2.933 2.933 0 011.56-.429c.763 0 1.365.243 1.807.728.442.485.663 1.118.663 1.898v.806a8.97 8.97 0 00-1.495-.442 8.142 8.142 0 00-1.625-.156c-1.127 0-2.115.186-2.964.559-.85.373-1.508.888-1.976 1.547-.468.659-.702 1.421-.702 2.288 0 .624.121 1.196.364 1.716s.585.975 1.027 1.365c.442.39.958.689 1.547.897a5.83 5.83 0 001.95.312zm.884-2.808c-.659 0-1.187-.156-1.586-.468-.399-.312-.598-.71-.598-1.196 0-.537.238-.966.715-1.287.477-.32 1.122-.481 1.937-.481.433 0 .867.048 1.3.143.433.095.84.221 1.222.377v.13c0 .52-.13.992-.39 1.417-.26.425-.615.758-1.066 1.001-.45.243-.962.364-1.534.364zM121.575 94l5.148-13.728h-3.848l-3.12 9.88-3.068-9.88h-3.978L117.857 94h3.718zm13.39.39a7.69 7.69 0 002.652-.455 6.709 6.709 0 002.184-1.287 5.251 5.251 0 001.404-2.002l-3.25-1.04c-.33.555-.75.98-1.261 1.274a3.35 3.35 0 01-1.703.442c-.901 0-1.647-.29-2.236-.871-.59-.58-.962-1.382-1.118-2.405h9.854v-.91c0-1.092-.16-2.08-.481-2.964a6.728 6.728 0 00-1.365-2.288 6.005 6.005 0 00-2.119-1.482c-.823-.347-1.738-.52-2.743-.52a6.6 6.6 0 00-4.875 2.067 7.051 7.051 0 00-1.443 2.301 7.764 7.764 0 00-.52 2.86c0 1.057.173 2.032.52 2.925a6.912 6.912 0 001.456 2.314 6.48 6.48 0 002.223 1.508c.858.355 1.798.533 2.821.533zm2.782-8.788h-6.058c.173-.901.533-1.612 1.079-2.132.546-.52 1.218-.78 2.015-.78.78 0 1.434.26 1.963.78.529.52.862 1.23 1.001 2.132zM152.827 94v-7.878c0-.572.121-1.083.364-1.534.243-.45.572-.802.988-1.053.416-.251.901-.377 1.456-.377.763 0 1.36.273 1.794.819.433.546.65 1.296.65 2.249V94h3.64v-8.242c0-1.196-.208-2.236-.624-3.12-.416-.884-1.001-1.564-1.755-2.041-.754-.477-1.634-.715-2.639-.715-.901 0-1.703.195-2.405.585a4.368 4.368 0 00-1.651 1.573l-.104-1.768h-3.354V94h3.64zm18.408.39c1.04 0 1.998-.182 2.873-.546a6.901 6.901 0 002.288-1.534 7.113 7.113 0 001.521-2.314c.364-.884.546-1.846.546-2.886s-.178-1.998-.533-2.873a6.933 6.933 0 00-1.495-2.288 6.89 6.89 0 00-2.262-1.521c-.867-.364-1.811-.546-2.834-.546-1.04 0-1.998.182-2.873.546a6.901 6.901 0 00-2.288 1.534 7.15 7.15 0 00-1.521 2.301c-.364.875-.546 1.833-.546 2.873 0 1.04.178 2.002.533 2.886a6.901 6.901 0 001.495 2.301 6.89 6.89 0 002.262 1.521c.867.364 1.811.546 2.834.546zm.052-3.276a3.115 3.115 0 01-1.768-.52 3.646 3.646 0 01-1.235-1.417c-.303-.598-.455-1.278-.455-2.041 0-.763.152-1.443.455-2.041a3.646 3.646 0 011.235-1.417c.52-.347 1.11-.52 1.768-.52.659 0 1.248.173 1.768.52.52.347.932.819 1.235 1.417.303.598.455 1.278.455 2.041 0 .763-.152 1.443-.455 2.041a3.646 3.646 0 01-1.235 1.417c-.52.347-1.11.52-1.768.52zm15.522 3.276a6.277 6.277 0 003.302-.91l-.65-2.73a6.168 6.168 0 01-.975.338c-.338.087-.654.13-.949.13-.572 0-.997-.178-1.274-.533-.277-.355-.416-.862-.416-1.521V83.21h3.744v-2.938h-3.744v-4.68h-3.64v4.68h-2.34v2.938h2.34v6.396c0 1.023.186 1.89.559 2.6.373.71.901 1.252 1.586 1.625s1.504.559 2.457.559zm9.074-.39v-7.878c0-.572.121-1.083.364-1.534.243-.45.572-.802.988-1.053.416-.251.901-.377 1.456-.377.763 0 1.36.273 1.794.819.433.546.65 1.296.65 2.249V94h3.64v-8.242c0-1.196-.208-2.236-.624-3.12-.416-.884-1.001-1.564-1.755-2.041-.754-.477-1.634-.715-2.639-.715-.85 0-1.603.169-2.262.507a4.397 4.397 0 00-1.612 1.391v-7.176h-3.64V94h3.64zm13.624-15.366c.381 0 .732-.091 1.053-.273a2.002 2.002 0 001.027-1.807c0-.399-.091-.754-.273-1.066a1.997 1.997 0 00-.754-.741 2.097 2.097 0 00-1.053-.273c-.381 0-.732.091-1.053.273-.32.182-.572.429-.754.741a2.076 2.076 0 00-.273 1.066c0 .399.091.754.273 1.066.182.312.433.559.754.741.32.182.672.273 1.053.273zM211.327 94V80.272h-3.64V94h3.64zm6.552 0v-7.878c0-.572.121-1.083.364-1.534.243-.45.572-.802.988-1.053.416-.251.901-.377 1.456-.377.763 0 1.36.273 1.794.819.433.546.65 1.296.65 2.249V94h3.64v-8.242c0-1.196-.208-2.236-.624-3.12-.416-.884-1.001-1.564-1.755-2.041-.754-.477-1.634-.715-2.639-.715-.901 0-1.703.195-2.405.585a4.368 4.368 0 00-1.651 1.573l-.104-1.768h-3.354V94h3.64zm18.226 5.434c1.04 0 1.989-.169 2.847-.507a6.443 6.443 0 002.223-1.443 6.416 6.416 0 001.443-2.236c.338-.867.507-1.829.507-2.886v-12.09h-3.354l-.078 1.69a4.661 4.661 0 00-1.768-1.547c-.71-.355-1.508-.533-2.392-.533-.901 0-1.738.178-2.509.533a6.407 6.407 0 00-2.028 1.469 6.683 6.683 0 00-1.352 2.197 7.646 7.646 0 00-.481 2.743c0 .953.156 1.842.468 2.665a6.77 6.77 0 001.3 2.158 5.977 5.977 0 001.963 1.443 5.75 5.75 0 002.431.52 5.3 5.3 0 002.379-.533 4.907 4.907 0 001.781-1.469v1.118c0 .728-.139 1.365-.416 1.911-.277.546-.663.97-1.157 1.274-.494.303-1.079.455-1.755.455a3.285 3.285 0 01-1.677-.429 3.433 3.433 0 01-1.209-1.183l-3.484.858c.347.763.823 1.43 1.43 2.002a6.591 6.591 0 002.132 1.339c.815.32 1.733.481 2.756.481zm.104-9.048c-.641 0-1.209-.16-1.703-.481a3.499 3.499 0 01-1.183-1.3c-.295-.546-.442-1.166-.442-1.859 0-.693.147-1.313.442-1.859.295-.546.689-.98 1.183-1.3.494-.32 1.062-.481 1.703-.481s1.209.16 1.703.481c.494.32.888.754 1.183 1.3.295.546.442 1.166.442 1.859 0 .693-.147 1.313-.442 1.859-.295.546-.689.98-1.183 1.3-.494.32-1.062.481-1.703.481zM78.363 128v-7.878c0-.572.113-1.083.338-1.534.225-.45.542-.802.949-1.053a2.595 2.595 0 011.391-.377c.745 0 1.326.273 1.742.819.416.546.624 1.296.624 2.249V128h3.64v-7.878c0-.572.113-1.083.338-1.534.225-.45.542-.802.949-1.053a2.595 2.595 0 011.391-.377c.745 0 1.326.273 1.742.819.416.546.624 1.296.624 2.249V128h3.64v-8.242c0-1.196-.204-2.236-.611-3.12-.407-.884-.984-1.564-1.729-2.041-.745-.477-1.63-.715-2.652-.715-1.023 0-1.928.234-2.717.702-.789.468-1.391 1.083-1.807 1.846a4.566 4.566 0 00-1.677-1.872c-.72-.45-1.538-.676-2.457-.676-.85 0-1.612.19-2.288.572a4.35 4.35 0 00-1.612 1.56l-.104-1.742h-3.354V128h3.64zm24.518.39c.953 0 1.777-.186 2.47-.559.693-.373 1.222-.854 1.586-1.443l.104 1.612h3.25v-8.32c0-.867-.143-1.651-.429-2.353a5.398 5.398 0 00-1.222-1.833 5.387 5.387 0 00-1.885-1.196c-.728-.277-1.534-.416-2.418-.416a7.01 7.01 0 00-2.652.494 5.763 5.763 0 00-2.067 1.391 4.543 4.543 0 00-1.131 2.093l3.25.65c.19-.52.52-.923.988-1.209a2.933 2.933 0 011.56-.429c.763 0 1.365.243 1.807.728.442.485.663 1.118.663 1.898v.806a8.97 8.97 0 00-1.495-.442 8.142 8.142 0 00-1.625-.156c-1.127 0-2.115.186-2.964.559-.85.373-1.508.888-1.976 1.547-.468.659-.702 1.421-.702 2.288 0 .624.121 1.196.364 1.716s.585.975 1.027 1.365c.442.39.958.689 1.547.897a5.83 5.83 0 001.95.312zm.884-2.808c-.659 0-1.187-.156-1.586-.468-.399-.312-.598-.71-.598-1.196 0-.537.238-.966.715-1.287.477-.32 1.122-.481 1.937-.481.433 0 .867.048 1.3.143.433.095.84.221 1.222.377v.13c0 .52-.13.992-.39 1.417-.26.425-.615.758-1.066 1.001-.45.243-.962.364-1.534.364zm15.392 2.808a6.277 6.277 0 003.302-.91l-.65-2.73a6.168 6.168 0 01-.975.338c-.338.087-.654.13-.949.13-.572 0-.997-.178-1.274-.533-.277-.355-.416-.862-.416-1.521v-5.954h3.744v-2.938h-3.744v-4.68h-3.64v4.68h-2.34v2.938h2.34v6.396c0 1.023.186 1.89.559 2.6.373.71.901 1.252 1.586 1.625s1.504.559 2.457.559zm11.804 0a7.177 7.177 0 002.808-.546 6.224 6.224 0 002.223-1.56 5.405 5.405 0 001.261-2.392l-3.458-.676c-.243.607-.615 1.075-1.118 1.404a3.017 3.017 0 01-1.69.494 2.84 2.84 0 01-1.664-.507c-.485-.338-.862-.802-1.131-1.391-.269-.59-.403-1.265-.403-2.028 0-.763.139-1.452.416-2.067.277-.615.654-1.096 1.131-1.443a2.734 2.734 0 011.651-.52c.59 0 1.118.169 1.586.507.468.338.832.802 1.092 1.391l3.458-.676a5.695 5.695 0 00-1.209-2.366 5.975 5.975 0 00-2.119-1.573c-.832-.373-1.742-.559-2.73-.559s-1.907.186-2.756.559c-.85.373-1.59.893-2.223 1.56a7.272 7.272 0 00-1.482 2.34 7.767 7.767 0 00-.533 2.899c0 1.023.173 1.972.52 2.847a6.933 6.933 0 001.443 2.275 6.495 6.495 0 002.184 1.495c.84.355 1.755.533 2.743.533zm12.116-.39v-7.878c0-.572.121-1.083.364-1.534.243-.45.572-.802.988-1.053.416-.251.901-.377 1.456-.377.763 0 1.36.273 1.794.819.433.546.65 1.296.65 2.249V128h3.64v-8.242c0-1.196-.208-2.236-.624-3.12-.416-.884-1.001-1.564-1.755-2.041-.754-.477-1.634-.715-2.639-.715-.85 0-1.603.169-2.262.507a4.397 4.397 0 00-1.612 1.391v-7.176h-3.64V128h3.64zm13.624-15.366c.381 0 .732-.091 1.053-.273a2.002 2.002 0 001.027-1.807c0-.399-.091-.754-.273-1.066a1.997 1.997 0 00-.754-.741 2.097 2.097 0 00-1.053-.273c-.381 0-.732.091-1.053.273-.32.182-.572.429-.754.741a2.076 2.076 0 00-.273 1.066c0 .399.091.754.273 1.066.182.312.433.559.754.741.32.182.672.273 1.053.273zm1.82 15.366v-13.728h-3.64V128h3.64zm6.552 0v-7.878c0-.572.121-1.083.364-1.534.243-.45.572-.802.988-1.053.416-.251.901-.377 1.456-.377.763 0 1.36.273 1.794.819.433.546.65 1.296.65 2.249V128h3.64v-8.242c0-1.196-.208-2.236-.624-3.12-.416-.884-1.001-1.564-1.755-2.041-.754-.477-1.634-.715-2.639-.715-.901 0-1.703.195-2.405.585a4.368 4.368 0 00-1.651 1.573l-.104-1.768h-3.354V128h3.64zm18.226 5.434c1.04 0 1.989-.169 2.847-.507a6.443 6.443 0 002.223-1.443 6.416 6.416 0 001.443-2.236c.338-.867.507-1.829.507-2.886v-12.09h-3.354l-.078 1.69a4.661 4.661 0 00-1.768-1.547c-.71-.355-1.508-.533-2.392-.533-.901 0-1.738.178-2.509.533a6.407 6.407 0 00-2.028 1.469 6.683 6.683 0 00-1.352 2.197 7.646 7.646 0 00-.481 2.743c0 .953.156 1.842.468 2.665a6.77 6.77 0 001.3 2.158 5.977 5.977 0 001.963 1.443 5.75 5.75 0 002.431.52 5.3 5.3 0 002.379-.533 4.907 4.907 0 001.781-1.469v1.118c0 .728-.139 1.365-.416 1.911-.277.546-.663.97-1.157 1.274-.494.303-1.079.455-1.755.455a3.285 3.285 0 01-1.677-.429 3.433 3.433 0 01-1.209-1.183l-3.484.858c.347.763.823 1.43 1.43 2.002a6.591 6.591 0 002.132 1.339c.815.32 1.733.481 2.756.481zm.104-9.048c-.641 0-1.209-.16-1.703-.481a3.499 3.499 0 01-1.183-1.3c-.295-.546-.442-1.166-.442-1.859 0-.693.147-1.313.442-1.859.295-.546.689-.98 1.183-1.3.494-.32 1.062-.481 1.703-.481s1.209.16 1.703.481c.494.32.888.754 1.183 1.3.295.546.442 1.166.442 1.859 0 .693-.147 1.313-.442 1.859-.295.546-.689.98-1.183 1.3-.494.32-1.062.481-1.703.481zm17.55 8.918c1.144 0 2.119-.32 2.925-.962.806-.641 1.469-1.655 1.989-3.042l5.642-15.028h-3.848l-2.938 9.724-3.25-9.724h-3.978l5.538 13.598-.234.598c-.243.59-.55 1.018-.923 1.287-.373.269-.81.403-1.313.403-.225 0-.468-.03-.728-.091a3.64 3.64 0 01-.676-.221l-.702 2.86c.364.208.754.36 1.17.455.416.095.858.143 1.326.143zm18.902-4.914c1.04 0 1.998-.182 2.873-.546a6.901 6.901 0 002.288-1.534 7.113 7.113 0 001.521-2.314c.364-.884.546-1.846.546-2.886s-.178-1.998-.533-2.873a6.933 6.933 0 00-1.495-2.288 6.89 6.89 0 00-2.262-1.521c-.867-.364-1.811-.546-2.834-.546-1.04 0-1.998.182-2.873.546a6.901 6.901 0 00-2.288 1.534 7.15 7.15 0 00-1.521 2.301c-.364.875-.546 1.833-.546 2.873 0 1.04.178 2.002.533 2.886a6.901 6.901 0 001.495 2.301 6.89 6.89 0 002.262 1.521c.867.364 1.811.546 2.834.546zm.052-3.276a3.115 3.115 0 01-1.768-.52 3.646 3.646 0 01-1.235-1.417c-.303-.598-.455-1.278-.455-2.041 0-.763.152-1.443.455-2.041a3.646 3.646 0 011.235-1.417c.52-.347 1.11-.52 1.768-.52.659 0 1.248.173 1.768.52.52.347.932.819 1.235 1.417.303.598.455 1.278.455 2.041 0 .763-.152 1.443-.455 2.041a3.646 3.646 0 01-1.235 1.417c-.52.347-1.11.52-1.768.52zm15.756 3.276c.953 0 1.816-.156 2.587-.468a5.723 5.723 0 001.989-1.326 5.794 5.794 0 001.274-2.054c.295-.797.442-1.69.442-2.678v-7.592h-3.64v7.67c0 .988-.234 1.764-.702 2.327-.468.563-1.1.845-1.898.845-.797 0-1.43-.282-1.898-.845-.468-.563-.702-1.339-.702-2.327v-7.67h-3.64v7.592c0 1.335.256 2.492.767 3.471a5.437 5.437 0 002.158 2.262c.927.529 2.015.793 3.263.793zm12.844-.39v-6.734c0-1.127.269-1.998.806-2.613s1.309-.923 2.314-.923c.208 0 .412.013.611.039.2.026.394.074.585.143l.39-3.588a3.929 3.929 0 00-.65-.169 4.134 4.134 0 00-.728-.065c-.797 0-1.49.195-2.08.585-.59.39-1.057.949-1.404 1.677l-.13-2.08h-3.354V128h3.64zM52.064 162.39c.815 0 1.56-.113 2.236-.338a5.439 5.439 0 001.768-.962 4.328 4.328 0 001.157-1.456c.269-.555.403-1.17.403-1.846 0-1.11-.39-2.024-1.17-2.743-.78-.72-1.907-1.209-3.38-1.469l-.728-.13c-.815-.139-1.391-.325-1.729-.559-.338-.234-.507-.524-.507-.871 0-.399.173-.728.52-.988.347-.26.789-.39 1.326-.39a2.2 2.2 0 011.365.442c.39.295.672.702.845 1.222l3.25-.676a4.526 4.526 0 00-1.04-2.002 5.035 5.035 0 00-1.885-1.287c-.754-.303-1.59-.455-2.509-.455-1.04 0-1.959.19-2.756.572-.797.381-1.421.906-1.872 1.573-.45.667-.676 1.434-.676 2.301 0 1.092.386 1.993 1.157 2.704.771.71 1.902 1.196 3.393 1.456l.728.13c.78.139 1.339.334 1.677.585.338.251.507.568.507.949 0 .45-.19.806-.572 1.066-.381.26-.867.39-1.456.39-.624 0-1.161-.156-1.612-.468a2.4 2.4 0 01-.936-1.274l-3.276.702c.208.78.585 1.456 1.131 2.028a5.544 5.544 0 002.002 1.326c.789.312 1.668.468 2.639.468zm14.326 0a7.69 7.69 0 002.652-.455 6.709 6.709 0 002.184-1.287 5.251 5.251 0 001.404-2.002l-3.25-1.04c-.33.555-.75.98-1.261 1.274a3.35 3.35 0 01-1.703.442c-.901 0-1.647-.29-2.236-.871-.59-.58-.962-1.382-1.118-2.405h9.854v-.91c0-1.092-.16-2.08-.481-2.964a6.728 6.728 0 00-1.365-2.288 6.005 6.005 0 00-2.119-1.482c-.823-.347-1.738-.52-2.743-.52a6.6 6.6 0 00-4.875 2.067 7.051 7.051 0 00-1.443 2.301 7.764 7.764 0 00-.52 2.86c0 1.057.173 2.032.52 2.925a6.912 6.912 0 001.456 2.314 6.48 6.48 0 002.223 1.508c.858.355 1.798.533 2.821.533zm2.782-8.788h-6.058c.173-.901.533-1.612 1.079-2.132.546-.52 1.218-.78 2.015-.78.78 0 1.434.26 1.963.78.529.52.862 1.23 1.001 2.132zm10.244 8.788c.953 0 1.777-.186 2.47-.559.693-.373 1.222-.854 1.586-1.443l.104 1.612h3.25v-8.32c0-.867-.143-1.651-.429-2.353a5.398 5.398 0 00-1.222-1.833 5.387 5.387 0 00-1.885-1.196c-.728-.277-1.534-.416-2.418-.416a7.01 7.01 0 00-2.652.494 5.763 5.763 0 00-2.067 1.391 4.543 4.543 0 00-1.131 2.093l3.25.65c.19-.52.52-.923.988-1.209a2.933 2.933 0 011.56-.429c.763 0 1.365.243 1.807.728.442.485.663 1.118.663 1.898v.806a8.97 8.97 0 00-1.495-.442 8.142 8.142 0 00-1.625-.156c-1.127 0-2.115.186-2.964.559-.85.373-1.508.888-1.976 1.547-.468.659-.702 1.421-.702 2.288 0 .624.121 1.196.364 1.716s.585.975 1.027 1.365c.442.39.958.689 1.547.897a5.83 5.83 0 001.95.312zm.884-2.808c-.659 0-1.187-.156-1.586-.468-.399-.312-.598-.71-.598-1.196 0-.537.238-.966.715-1.287.477-.32 1.122-.481 1.937-.481.433 0 .867.048 1.3.143.433.095.84.221 1.222.377v.13c0 .52-.13.992-.39 1.417-.26.425-.615.758-1.066 1.001-.45.243-.962.364-1.534.364zM93.378 162v-6.734c0-1.127.269-1.998.806-2.613s1.309-.923 2.314-.923c.208 0 .412.013.611.039.2.026.394.074.585.143l.39-3.588a3.929 3.929 0 00-.65-.169 4.134 4.134 0 00-.728-.065c-.797 0-1.49.195-2.08.585-.59.39-1.057.949-1.404 1.677l-.13-2.08h-3.354V162h3.64zm13.052.39a7.177 7.177 0 002.808-.546 6.224 6.224 0 002.223-1.56 5.405 5.405 0 001.261-2.392l-3.458-.676c-.243.607-.615 1.075-1.118 1.404a3.017 3.017 0 01-1.69.494 2.84 2.84 0 01-1.664-.507c-.485-.338-.862-.802-1.131-1.391-.269-.59-.403-1.265-.403-2.028 0-.763.139-1.452.416-2.067.277-.615.654-1.096 1.131-1.443a2.734 2.734 0 011.651-.52c.59 0 1.118.169 1.586.507.468.338.832.802 1.092 1.391l3.458-.676a5.695 5.695 0 00-1.209-2.366 5.975 5.975 0 00-2.119-1.573c-.832-.373-1.742-.559-2.73-.559s-1.907.186-2.756.559c-.85.373-1.59.893-2.223 1.56a7.272 7.272 0 00-1.482 2.34 7.767 7.767 0 00-.533 2.899c0 1.023.173 1.972.52 2.847a6.933 6.933 0 001.443 2.275 6.495 6.495 0 002.184 1.495c.84.355 1.755.533 2.743.533zm12.116-.39v-7.878c0-.572.121-1.083.364-1.534.243-.45.572-.802.988-1.053.416-.251.901-.377 1.456-.377.763 0 1.36.273 1.794.819.433.546.65 1.296.65 2.249V162h3.64v-8.242c0-1.196-.208-2.236-.624-3.12-.416-.884-1.001-1.564-1.755-2.041-.754-.477-1.634-.715-2.639-.715-.85 0-1.603.169-2.262.507a4.397 4.397 0 00-1.612 1.391v-7.176h-3.64V162h3.64zm30.94 5.044v-18.772h-3.354l-.104 1.794a4.854 4.854 0 00-1.794-1.612c-.728-.381-1.543-.572-2.444-.572-.919 0-1.777.186-2.574.559a6.318 6.318 0 00-2.08 1.56 7.358 7.358 0 00-1.378 2.327c-.33.884-.494 1.846-.494 2.886 0 1.023.16 1.967.481 2.834.32.867.767 1.625 1.339 2.275a6.206 6.206 0 002.002 1.521 5.72 5.72 0 002.496.546c.884 0 1.694-.19 2.431-.572a5.232 5.232 0 001.833-1.56v6.786h3.64zm-7.046-7.93a3.115 3.115 0 01-1.768-.52 3.646 3.646 0 01-1.235-1.417c-.303-.598-.455-1.278-.455-2.041 0-.763.152-1.443.455-2.041a3.646 3.646 0 011.235-1.417c.52-.347 1.11-.52 1.768-.52.659 0 1.248.173 1.768.52.52.347.932.819 1.235 1.417.303.598.455 1.278.455 2.041 0 .763-.152 1.443-.455 2.041a3.646 3.646 0 01-1.235 1.417c-.52.347-1.11.52-1.768.52zm16.146 3.276c.953 0 1.816-.156 2.587-.468a5.723 5.723 0 001.989-1.326 5.794 5.794 0 001.274-2.054c.295-.797.442-1.69.442-2.678v-7.592h-3.64v7.67c0 .988-.234 1.764-.702 2.327-.468.563-1.1.845-1.898.845-.797 0-1.43-.282-1.898-.845-.468-.563-.702-1.339-.702-2.327v-7.67h-3.64v7.592c0 1.335.256 2.492.767 3.471a5.437 5.437 0 002.158 2.262c.927.529 2.015.793 3.263.793zm15.704 0a7.69 7.69 0 002.652-.455 6.709 6.709 0 002.184-1.287 5.251 5.251 0 001.404-2.002l-3.25-1.04c-.33.555-.75.98-1.261 1.274a3.35 3.35 0 01-1.703.442c-.901 0-1.647-.29-2.236-.871-.59-.58-.962-1.382-1.118-2.405h9.854v-.91c0-1.092-.16-2.08-.481-2.964a6.728 6.728 0 00-1.365-2.288 6.005 6.005 0 00-2.119-1.482c-.823-.347-1.738-.52-2.743-.52a6.6 6.6 0 00-4.875 2.067 7.051 7.051 0 00-1.443 2.301 7.764 7.764 0 00-.52 2.86c0 1.057.173 2.032.52 2.925a6.912 6.912 0 001.456 2.314 6.48 6.48 0 002.223 1.508c.858.355 1.798.533 2.821.533zm2.782-8.788h-6.058c.173-.901.533-1.612 1.079-2.132.546-.52 1.218-.78 2.015-.78.78 0 1.434.26 1.963.78.529.52.862 1.23 1.001 2.132zm9.646 8.398v-6.734c0-1.127.269-1.998.806-2.613s1.309-.923 2.314-.923c.208 0 .412.013.611.039.2.026.394.074.585.143l.39-3.588a3.929 3.929 0 00-.65-.169 4.134 4.134 0 00-.728-.065c-.797 0-1.49.195-2.08.585-.59.39-1.057.949-1.404 1.677l-.13-2.08h-3.354V162h3.64zm8.97 5.304c1.144 0 2.119-.32 2.925-.962.806-.641 1.469-1.655 1.989-3.042l5.642-15.028h-3.848l-2.938 9.724-3.25-9.724h-3.978l5.538 13.598-.234.598c-.243.59-.55 1.018-.923 1.287-.373.269-.81.403-1.313.403-.225 0-.468-.03-.728-.091a3.64 3.64 0 01-.676-.221l-.702 2.86c.364.208.754.36 1.17.455.416.095.858.143 1.326.143zm19.552-20.67c.381 0 .732-.091 1.053-.273a2.002 2.002 0 001.027-1.807c0-.399-.091-.754-.273-1.066a1.997 1.997 0 00-.754-.741 2.097 2.097 0 00-1.053-.273c-.381 0-.732.091-1.053.273-.32.182-.572.429-.754.741a2.076 2.076 0 00-.273 1.066c0 .399.091.754.273 1.066.182.312.433.559.754.741.32.182.672.273 1.053.273zM217.06 162v-13.728h-3.64V162h3.64zm6.552 0v-7.878c0-.572.121-1.083.364-1.534.243-.45.572-.802.988-1.053.416-.251.901-.377 1.456-.377.763 0 1.36.273 1.794.819.433.546.65 1.296.65 2.249V162h3.64v-8.242c0-1.196-.208-2.236-.624-3.12-.416-.884-1.001-1.564-1.755-2.041-.754-.477-1.634-.715-2.639-.715-.901 0-1.703.195-2.405.585a4.368 4.368 0 00-1.651 1.573l-.104-1.768h-3.354V162h3.64zm23.842.39c1.04 0 1.998-.182 2.873-.546a6.901 6.901 0 002.288-1.534 7.113 7.113 0 001.521-2.314c.364-.884.546-1.846.546-2.886s-.178-1.998-.533-2.873a6.933 6.933 0 00-1.495-2.288 6.89 6.89 0 00-2.262-1.521c-.867-.364-1.811-.546-2.834-.546-1.04 0-1.998.182-2.873.546a6.901 6.901 0 00-2.288 1.534 7.15 7.15 0 00-1.521 2.301c-.364.875-.546 1.833-.546 2.873 0 1.04.178 2.002.533 2.886a6.901 6.901 0 001.495 2.301 6.89 6.89 0 002.262 1.521c.867.364 1.811.546 2.834.546zm.052-3.276a3.115 3.115 0 01-1.768-.52 3.646 3.646 0 01-1.235-1.417c-.303-.598-.455-1.278-.455-2.041 0-.763.152-1.443.455-2.041a3.646 3.646 0 011.235-1.417c.52-.347 1.11-.52 1.768-.52.659 0 1.248.173 1.768.52.52.347.932.819 1.235 1.417.303.598.455 1.278.455 2.041 0 .763-.152 1.443-.455 2.041a3.646 3.646 0 01-1.235 1.417c-.52.347-1.11.52-1.768.52zm15.756 3.276c.953 0 1.816-.156 2.587-.468a5.723 5.723 0 001.989-1.326 5.794 5.794 0 001.274-2.054c.295-.797.442-1.69.442-2.678v-7.592h-3.64v7.67c0 .988-.234 1.764-.702 2.327-.468.563-1.1.845-1.898.845-.797 0-1.43-.282-1.898-.845-.468-.563-.702-1.339-.702-2.327v-7.67h-3.64v7.592c0 1.335.256 2.492.767 3.471a5.437 5.437 0 002.158 2.262c.927.529 2.015.793 3.263.793zm12.844-.39v-6.734c0-1.127.269-1.998.806-2.613s1.309-.923 2.314-.923c.208 0 .412.013.611.039.2.026.394.074.585.143l.39-3.588a3.929 3.929 0 00-.65-.169 4.134 4.134 0 00-.728-.065c-.797 0-1.49.195-2.08.585-.59.39-1.057.949-1.404 1.677l-.13-2.08h-3.354V162h3.64zm-167.063 34.39c.953 0 1.816-.212 2.587-.637a5.228 5.228 0 001.885-1.755l.104 2.002h3.354v-19.396h-3.64v7.202a4.83 4.83 0 00-1.755-1.417c-.702-.338-1.478-.507-2.327-.507-.919 0-1.772.186-2.561.559a6.358 6.358 0 00-2.067 1.56 7.358 7.358 0 00-1.378 2.327c-.33.884-.494 1.846-.494 2.886 0 1.023.16 1.967.481 2.834.32.867.767 1.625 1.339 2.275a6.206 6.206 0 002.002 1.521 5.66 5.66 0 002.47.546zm.884-3.276a3.115 3.115 0 01-1.768-.52 3.646 3.646 0 01-1.235-1.417c-.303-.598-.455-1.278-.455-2.041 0-.763.152-1.443.455-2.041a3.646 3.646 0 011.235-1.417c.52-.347 1.11-.52 1.768-.52.659 0 1.248.173 1.768.52.52.347.932.819 1.235 1.417.303.598.455 1.278.455 2.041 0 .763-.152 1.443-.455 2.041a3.646 3.646 0 01-1.235 1.417c-.52.347-1.11.52-1.768.52zm14.196 3.276c.953 0 1.777-.186 2.47-.559.693-.373 1.222-.854 1.586-1.443l.104 1.612h3.25v-8.32c0-.867-.143-1.651-.429-2.353a5.398 5.398 0 00-1.222-1.833 5.387 5.387 0 00-1.885-1.196c-.728-.277-1.534-.416-2.418-.416a7.01 7.01 0 00-2.652.494 5.763 5.763 0 00-2.067 1.391 4.543 4.543 0 00-1.131 2.093l3.25.65c.19-.52.52-.923.988-1.209a2.933 2.933 0 011.56-.429c.763 0 1.365.243 1.807.728.442.485.663 1.118.663 1.898v.806a8.97 8.97 0 00-1.495-.442 8.142 8.142 0 00-1.625-.156c-1.127 0-2.115.186-2.964.559-.85.373-1.508.888-1.976 1.547-.468.659-.702 1.421-.702 2.288 0 .624.121 1.196.364 1.716s.585.975 1.027 1.365c.442.39.958.689 1.547.897a5.83 5.83 0 001.95.312zm.884-2.808c-.659 0-1.187-.156-1.586-.468-.399-.312-.598-.71-.598-1.196 0-.537.238-.966.715-1.287.477-.32 1.122-.481 1.937-.481.433 0 .867.048 1.3.143.433.095.84.221 1.222.377v.13c0 .52-.13.992-.39 1.417-.26.425-.615.758-1.066 1.001-.45.243-.962.364-1.534.364zm15.392 2.808a6.277 6.277 0 003.302-.91l-.65-2.73a6.168 6.168 0 01-.975.338c-.338.087-.654.13-.949.13-.572 0-.997-.178-1.274-.533-.277-.355-.416-.862-.416-1.521v-5.954h3.744v-2.938h-3.744v-4.68h-3.64v4.68h-2.34v2.938h2.34v6.396c0 1.023.186 1.89.559 2.6.373.71.901 1.252 1.586 1.625s1.504.559 2.457.559zm9.672 0c.953 0 1.777-.186 2.47-.559.693-.373 1.222-.854 1.586-1.443l.104 1.612h3.25v-8.32c0-.867-.143-1.651-.429-2.353a5.398 5.398 0 00-1.222-1.833 5.387 5.387 0 00-1.885-1.196c-.728-.277-1.534-.416-2.418-.416a7.01 7.01 0 00-2.652.494 5.763 5.763 0 00-2.067 1.391 4.543 4.543 0 00-1.131 2.093l3.25.65c.19-.52.52-.923.988-1.209a2.933 2.933 0 011.56-.429c.763 0 1.365.243 1.807.728.442.485.663 1.118.663 1.898v.806a8.97 8.97 0 00-1.495-.442 8.142 8.142 0 00-1.625-.156c-1.127 0-2.115.186-2.964.559-.85.373-1.508.888-1.976 1.547-.468.659-.702 1.421-.702 2.288 0 .624.121 1.196.364 1.716s.585.975 1.027 1.365c.442.39.958.689 1.547.897a5.83 5.83 0 001.95.312zm.884-2.808c-.659 0-1.187-.156-1.586-.468-.399-.312-.598-.71-.598-1.196 0-.537.238-.966.715-1.287.477-.32 1.122-.481 1.937-.481.433 0 .867.048 1.3.143.433.095.84.221 1.222.377v.13c0 .52-.13.992-.39 1.417-.26.425-.615.758-1.066 1.001-.45.243-.962.364-1.534.364zm17.134 2.808c.919 0 1.777-.186 2.574-.559a6.318 6.318 0 002.08-1.56 7.358 7.358 0 001.378-2.327c.33-.884.494-1.846.494-2.886 0-1.023-.16-1.967-.481-2.834a7.174 7.174 0 00-1.339-2.275 6.206 6.206 0 00-2.002-1.521 5.72 5.72 0 00-2.496-.546c-.884 0-1.694.19-2.431.572a5.232 5.232 0 00-1.833 1.56v-7.41h-3.64V196h3.354l.104-1.794a4.854 4.854 0 001.794 1.612c.728.381 1.543.572 2.444.572zm-.65-3.276a3.115 3.115 0 01-1.768-.52 3.646 3.646 0 01-1.235-1.417c-.303-.598-.455-1.278-.455-2.041 0-.763.152-1.443.455-2.041a3.646 3.646 0 011.235-1.417c.52-.347 1.11-.52 1.768-.52.659 0 1.248.173 1.768.52.52.347.932.819 1.235 1.417.303.598.455 1.278.455 2.041 0 .763-.152 1.443-.455 2.041a3.646 3.646 0 01-1.235 1.417c-.52.347-1.11.52-1.768.52zm13.806 3.276c.953 0 1.777-.186 2.47-.559.693-.373 1.222-.854 1.586-1.443l.104 1.612h3.25v-8.32c0-.867-.143-1.651-.429-2.353a5.398 5.398 0 00-1.222-1.833 5.387 5.387 0 00-1.885-1.196c-.728-.277-1.534-.416-2.418-.416a7.01 7.01 0 00-2.652.494 5.763 5.763 0 00-2.067 1.391 4.543 4.543 0 00-1.131 2.093l3.25.65c.19-.52.52-.923.988-1.209a2.933 2.933 0 011.56-.429c.763 0 1.365.243 1.807.728.442.485.663 1.118.663 1.898v.806a8.97 8.97 0 00-1.495-.442 8.142 8.142 0 00-1.625-.156c-1.127 0-2.115.186-2.964.559-.85.373-1.508.888-1.976 1.547-.468.659-.702 1.421-.702 2.288 0 .624.121 1.196.364 1.716s.585.975 1.027 1.365c.442.39.958.689 1.547.897a5.83 5.83 0 001.95.312zm.884-2.808c-.659 0-1.187-.156-1.586-.468-.399-.312-.598-.71-.598-1.196 0-.537.238-.966.715-1.287.477-.32 1.122-.481 1.937-.481.433 0 .867.048 1.3.143.433.095.84.221 1.222.377v.13c0 .52-.13.992-.39 1.417-.26.425-.615.758-1.066 1.001-.45.243-.962.364-1.534.364zm14.378 2.808c.815 0 1.56-.113 2.236-.338a5.439 5.439 0 001.768-.962 4.328 4.328 0 001.157-1.456c.269-.555.403-1.17.403-1.846 0-1.11-.39-2.024-1.17-2.743-.78-.72-1.907-1.209-3.38-1.469l-.728-.13c-.815-.139-1.391-.325-1.729-.559-.338-.234-.507-.524-.507-.871 0-.399.173-.728.52-.988.347-.26.789-.39 1.326-.39a2.2 2.2 0 011.365.442c.39.295.672.702.845 1.222l3.25-.676a4.526 4.526 0 00-1.04-2.002 5.035 5.035 0 00-1.885-1.287c-.754-.303-1.59-.455-2.509-.455-1.04 0-1.959.19-2.756.572-.797.381-1.421.906-1.872 1.573-.45.667-.676 1.434-.676 2.301 0 1.092.386 1.993 1.157 2.704.771.71 1.902 1.196 3.393 1.456l.728.13c.78.139 1.339.334 1.677.585.338.251.507.568.507.949 0 .45-.19.806-.572 1.066-.381.26-.867.39-1.456.39-.624 0-1.161-.156-1.612-.468a2.4 2.4 0 01-.936-1.274l-3.276.702c.208.78.585 1.456 1.131 2.028a5.544 5.544 0 002.002 1.326c.789.312 1.668.468 2.639.468zm14.326 0a7.69 7.69 0 002.652-.455 6.709 6.709 0 002.184-1.287 5.251 5.251 0 001.404-2.002l-3.25-1.04c-.33.555-.75.98-1.261 1.274a3.35 3.35 0 01-1.703.442c-.901 0-1.647-.29-2.236-.871-.59-.58-.962-1.382-1.118-2.405h9.854v-.91c0-1.092-.16-2.08-.481-2.964a6.728 6.728 0 00-1.365-2.288 6.005 6.005 0 00-2.119-1.482c-.823-.347-1.738-.52-2.743-.52a6.6 6.6 0 00-4.875 2.067 7.051 7.051 0 00-1.443 2.301 7.764 7.764 0 00-.52 2.86c0 1.057.173 2.032.52 2.925a6.912 6.912 0 001.456 2.314 6.48 6.48 0 002.223 1.508c.858.355 1.798.533 2.821.533zm2.782-8.788h-6.058c.173-.901.533-1.612 1.079-2.132.546-.52 1.218-.78 2.015-.78.78 0 1.434.26 1.963.78.529.52.862 1.23 1.001 2.132zm8.06 8.502c.433 0 .819-.104 1.157-.312.338-.208.611-.485.819-.832.208-.347.312-.728.312-1.144 0-.416-.104-.797-.312-1.144a2.428 2.428 0 00-.819-.832 2.162 2.162 0 00-1.157-.312c-.433 0-.819.104-1.157.312a2.428 2.428 0 00-.819.832 2.182 2.182 0 00-.312 1.144c0 .416.104.797.312 1.144.208.347.481.624.819.832.338.208.724.312 1.157.312z"/><use fill="#D8D8D8" xlink:href="#c"/><path fill="#4051B5" fill-rule="nonzero" d="M67.42 257c2.016 0 3.858-.306 5.526-.918 1.668-.612 3.102-1.488 4.302-2.628a11.89 11.89 0 002.79-4.068c.66-1.572.99-3.306.99-5.202s-.324-3.624-.972-5.184a11.537 11.537 0 00-2.772-4.032c-1.2-1.128-2.628-1.998-4.284-2.61-1.656-.612-3.492-.918-5.508-.918h-9.936V257h9.864zm-.252-4.752H62.92v-16.056h4.248c1.704 0 3.18.324 4.428.972 1.248.648 2.208 1.572 2.88 2.772.672 1.2 1.008 2.628 1.008 4.284 0 1.656-.336 3.084-1.008 4.284-.672 1.2-1.632 2.124-2.88 2.772-1.248.648-2.724.972-4.428.972zm19.908-16.524c.528 0 1.014-.126 1.458-.378a2.765 2.765 0 001.044-1.026c.252-.432.378-.924.378-1.476 0-.552-.126-1.044-.378-1.476a2.765 2.765 0 00-1.044-1.026 2.903 2.903 0 00-1.458-.378c-.528 0-1.014.126-1.458.378a2.765 2.765 0 00-1.044 1.026 2.875 2.875 0 00-.378 1.476c0 .552.126 1.044.378 1.476.252.432.6.774 1.044 1.026.444.252.93.378 1.458.378zM89.596 257v-19.008h-5.04V257h5.04zm12.024.54c1.32 0 2.514-.294 3.582-.882a7.238 7.238 0 002.61-2.43l.144 2.772h4.644v-26.856h-5.04v9.972a6.688 6.688 0 00-2.43-1.962c-.972-.468-2.046-.702-3.222-.702-1.272 0-2.454.258-3.546.774a8.804 8.804 0 00-2.862 2.16 10.188 10.188 0 00-1.908 3.222c-.456 1.224-.684 2.556-.684 3.996 0 1.416.222 2.724.666 3.924a9.933 9.933 0 001.854 3.15 8.593 8.593 0 002.772 2.106 7.837 7.837 0 003.42.756zm1.224-4.536c-.912 0-1.728-.24-2.448-.72s-1.29-1.134-1.71-1.962c-.42-.828-.63-1.77-.63-2.826s.21-1.998.63-2.826c.42-.828.99-1.482 1.71-1.962s1.536-.72 2.448-.72c.912 0 1.728.24 2.448.72s1.29 1.134 1.71 1.962c.42.828.63 1.77.63 2.826s-.21 1.998-.63 2.826c-.42.828-.99 1.482-1.71 1.962s-1.536.72-2.448.72zM133.408 257l3.816-12.852L141.04 257h4.644l6.3-19.008h-5.004l-3.636 12.888-3.852-12.888h-4.356l-3.852 12.852-3.564-12.852h-5.184l6.3 19.008h4.572zm29.988.54c1.296 0 2.52-.21 3.672-.63a9.289 9.289 0 003.024-1.782 7.271 7.271 0 001.944-2.772l-4.5-1.44c-.456.768-1.038 1.356-1.746 1.764a4.637 4.637 0 01-2.358.612c-1.248 0-2.28-.402-3.096-1.206-.816-.804-1.332-1.914-1.548-3.33h13.644v-1.26c0-1.512-.222-2.88-.666-4.104-.444-1.224-1.074-2.28-1.89-3.168a8.314 8.314 0 00-2.934-2.052c-1.14-.48-2.406-.72-3.798-.72-1.344 0-2.592.252-3.744.756a9.138 9.138 0 00-3.006 2.106 9.763 9.763 0 00-1.998 3.186c-.48 1.224-.72 2.544-.72 3.96 0 1.464.24 2.814.72 4.05.48 1.236 1.152 2.304 2.016 3.204.864.9 1.89 1.596 3.078 2.088s2.49.738 3.906.738zm3.852-12.168h-8.388c.24-1.248.738-2.232 1.494-2.952.756-.72 1.686-1.08 2.79-1.08 1.08 0 1.986.36 2.718 1.08.732.72 1.194 1.704 1.386 2.952zM188.128 257v-10.908c0-.792.156-1.5.468-2.124.312-.624.75-1.11 1.314-1.458.564-.348 1.206-.522 1.926-.522 1.032 0 1.836.378 2.412 1.134.576.756.864 1.794.864 3.114V257h5.04v-10.908c0-.792.156-1.5.468-2.124.312-.624.75-1.11 1.314-1.458.564-.348 1.206-.522 1.926-.522 1.032 0 1.836.378 2.412 1.134.576.756.864 1.794.864 3.114V257h5.04v-11.412c0-1.656-.282-3.096-.846-4.32-.564-1.224-1.362-2.166-2.394-2.826-1.032-.66-2.256-.99-3.672-.99-1.416 0-2.67.324-3.762.972-1.092.648-1.926 1.5-2.502 2.556-.552-1.104-1.326-1.968-2.322-2.592-.996-.624-2.13-.936-3.402-.936-1.176 0-2.232.264-3.168.792a6.024 6.024 0 00-2.232 2.16l-.144-2.412h-4.644V257h5.04zm30.6-21.276c.528 0 1.014-.126 1.458-.378a2.765 2.765 0 001.044-1.026c.252-.432.378-.924.378-1.476 0-.552-.126-1.044-.378-1.476a2.765 2.765 0 00-1.044-1.026 2.903 2.903 0 00-1.458-.378c-.528 0-1.014.126-1.458.378a2.765 2.765 0 00-1.044 1.026 2.875 2.875 0 00-.378 1.476c0 .552.126 1.044.378 1.476.252.432.6.774 1.044 1.026.444.252.93.378 1.458.378zm2.52 21.276v-19.008h-5.04V257h5.04zm10.872.54c1.128 0 2.16-.156 3.096-.468a7.53 7.53 0 002.448-1.332 5.992 5.992 0 001.602-2.016c.372-.768.558-1.62.558-2.556 0-1.536-.54-2.802-1.62-3.798s-2.64-1.674-4.68-2.034l-1.008-.18c-1.128-.192-1.926-.45-2.394-.774-.468-.324-.702-.726-.702-1.206 0-.552.24-1.008.72-1.368.48-.36 1.092-.54 1.836-.54.72 0 1.35.204 1.89.612.54.408.93.972 1.17 1.692l4.5-.936c-.264-1.08-.744-2.004-1.44-2.772-.696-.768-1.566-1.362-2.61-1.782-1.044-.42-2.202-.63-3.474-.63-1.44 0-2.712.264-3.816.792-1.104.528-1.968 1.254-2.592 2.178-.624.924-.936 1.986-.936 3.186 0 1.512.534 2.76 1.602 3.744 1.068.984 2.634 1.656 4.698 2.016l1.008.18c1.08.192 1.854.462 2.322.81.468.348.702.786.702 1.314 0 .624-.264 1.116-.792 1.476-.528.36-1.2.54-2.016.54-.864 0-1.608-.216-2.232-.648a3.324 3.324 0 01-1.296-1.764l-4.536.972a6.379 6.379 0 001.566 2.808c.756.792 1.68 1.404 2.772 1.836 1.092.432 2.31.648 3.654.648zm17.676 0c1.128 0 2.16-.156 3.096-.468a7.53 7.53 0 002.448-1.332 5.992 5.992 0 001.602-2.016c.372-.768.558-1.62.558-2.556 0-1.536-.54-2.802-1.62-3.798s-2.64-1.674-4.68-2.034l-1.008-.18c-1.128-.192-1.926-.45-2.394-.774-.468-.324-.702-.726-.702-1.206 0-.552.24-1.008.72-1.368.48-.36 1.092-.54 1.836-.54.72 0 1.35.204 1.89.612.54.408.93.972 1.17 1.692l4.5-.936c-.264-1.08-.744-2.004-1.44-2.772-.696-.768-1.566-1.362-2.61-1.782-1.044-.42-2.202-.63-3.474-.63-1.44 0-2.712.264-3.816.792-1.104.528-1.968 1.254-2.592 2.178-.624.924-.936 1.986-.936 3.186 0 1.512.534 2.76 1.602 3.744 1.068.984 2.634 1.656 4.698 2.016l1.008.18c1.08.192 1.854.462 2.322.81.468.348.702.786.702 1.314 0 .624-.264 1.116-.792 1.476-.528.36-1.2.54-2.016.54-.864 0-1.608-.216-2.232-.648a3.324 3.324 0 01-1.296-1.764l-4.536.972a6.379 6.379 0 001.566 2.808c.756.792 1.68 1.404 2.772 1.836 1.092.432 2.31.648 3.654.648zm25.2 0c1.128 0 2.16-.156 3.096-.468a7.53 7.53 0 002.448-1.332 5.992 5.992 0 001.602-2.016c.372-.768.558-1.62.558-2.556 0-1.536-.54-2.802-1.62-3.798s-2.64-1.674-4.68-2.034l-1.008-.18c-1.128-.192-1.926-.45-2.394-.774-.468-.324-.702-.726-.702-1.206 0-.552.24-1.008.72-1.368.48-.36 1.092-.54 1.836-.54.72 0 1.35.204 1.89.612.54.408.93.972 1.17 1.692l4.5-.936c-.264-1.08-.744-2.004-1.44-2.772-.696-.768-1.566-1.362-2.61-1.782-1.044-.42-2.202-.63-3.474-.63-1.44 0-2.712.264-3.816.792-1.104.528-1.968 1.254-2.592 2.178-.624.924-.936 1.986-.936 3.186 0 1.512.534 2.76 1.602 3.744 1.068.984 2.634 1.656 4.698 2.016l1.008.18c1.08.192 1.854.462 2.322.81.468.348.702.786.702 1.314 0 .624-.264 1.116-.792 1.476-.528.36-1.2.54-2.016.54-.864 0-1.608-.216-2.232-.648a3.324 3.324 0 01-1.296-1.764l-4.536.972a6.379 6.379 0 001.566 2.808c.756.792 1.68 1.404 2.772 1.836 1.092.432 2.31.648 3.654.648zm19.98 0c1.44 0 2.766-.252 3.978-.756a9.555 9.555 0 003.168-2.124 9.85 9.85 0 002.106-3.204c.504-1.224.756-2.556.756-3.996s-.246-2.766-.738-3.978a9.6 9.6 0 00-2.07-3.168 9.539 9.539 0 00-3.132-2.106c-1.2-.504-2.508-.756-3.924-.756-1.44 0-2.766.252-3.978.756a9.555 9.555 0 00-3.168 2.124 9.9 9.9 0 00-2.106 3.186c-.504 1.212-.756 2.538-.756 3.978 0 1.44.246 2.772.738 3.996a9.555 9.555 0 002.07 3.186 9.539 9.539 0 003.132 2.106c1.2.504 2.508.756 3.924.756zm.072-4.536c-.912 0-1.728-.24-2.448-.72s-1.29-1.134-1.71-1.962c-.42-.828-.63-1.77-.63-2.826s.21-1.998.63-2.826c.42-.828.99-1.482 1.71-1.962s1.536-.72 2.448-.72c.912 0 1.728.24 2.448.72s1.29 1.134 1.71 1.962c.42.828.63 1.77.63 2.826s-.21 1.998-.63 2.826c-.42.828-.99 1.482-1.71 1.962s-1.536.72-2.448.72zM313.336 257v-10.908c0-.792.156-1.5.468-2.124.312-.624.75-1.11 1.314-1.458.564-.348 1.206-.522 1.926-.522 1.032 0 1.836.378 2.412 1.134.576.756.864 1.794.864 3.114V257h5.04v-10.908c0-.792.156-1.5.468-2.124.312-.624.75-1.11 1.314-1.458.564-.348 1.206-.522 1.926-.522 1.032 0 1.836.378 2.412 1.134.576.756.864 1.794.864 3.114V257h5.04v-11.412c0-1.656-.282-3.096-.846-4.32-.564-1.224-1.362-2.166-2.394-2.826-1.032-.66-2.256-.99-3.672-.99-1.416 0-2.67.324-3.762.972-1.092.648-1.926 1.5-2.502 2.556-.552-1.104-1.326-1.968-2.322-2.592-.996-.624-2.13-.936-3.402-.936-1.176 0-2.232.264-3.168.792a6.024 6.024 0 00-2.232 2.16l-.144-2.412h-4.644V257h5.04zm37.08.54c1.296 0 2.52-.21 3.672-.63a9.289 9.289 0 003.024-1.782 7.271 7.271 0 001.944-2.772l-4.5-1.44c-.456.768-1.038 1.356-1.746 1.764a4.637 4.637 0 01-2.358.612c-1.248 0-2.28-.402-3.096-1.206-.816-.804-1.332-1.914-1.548-3.33h13.644v-1.26c0-1.512-.222-2.88-.666-4.104-.444-1.224-1.074-2.28-1.89-3.168a8.314 8.314 0 00-2.934-2.052c-1.14-.48-2.406-.72-3.798-.72-1.344 0-2.592.252-3.744.756a9.138 9.138 0 00-3.006 2.106 9.763 9.763 0 00-1.998 3.186c-.48 1.224-.72 2.544-.72 3.96 0 1.464.24 2.814.72 4.05.48 1.236 1.152 2.304 2.016 3.204.864.9 1.89 1.596 3.078 2.088s2.49.738 3.906.738zm3.852-12.168h-8.388c.24-1.248.738-2.232 1.494-2.952.756-.72 1.686-1.08 2.79-1.08 1.08 0 1.986.36 2.718 1.08.732.72 1.194 1.704 1.386 2.952zm16.56 12.168a8.691 8.691 0 004.572-1.26l-.9-3.78a8.54 8.54 0 01-1.35.468c-.468.12-.906.18-1.314.18-.792 0-1.38-.246-1.764-.738-.384-.492-.576-1.194-.576-2.106v-8.244h5.184v-4.068h-5.184v-6.48h-5.04v6.48h-3.24v4.068h3.24v8.856c0 1.416.258 2.616.774 3.6a5.3 5.3 0 002.196 2.25c.948.516 2.082.774 3.402.774zm12.564-.54v-10.908c0-.792.168-1.5.504-2.124a3.73 3.73 0 011.368-1.458c.576-.348 1.248-.522 2.016-.522 1.056 0 1.884.378 2.484 1.134.6.756.9 1.794.9 3.114V257h5.04v-11.412c0-1.656-.288-3.096-.864-4.32-.576-1.224-1.386-2.166-2.43-2.826-1.044-.66-2.262-.99-3.654-.99-1.176 0-2.22.234-3.132.702a6.089 6.089 0 00-2.232 1.926v-9.936h-5.04V257h5.04zm18.864-21.276c.528 0 1.014-.126 1.458-.378a2.765 2.765 0 001.044-1.026c.252-.432.378-.924.378-1.476 0-.552-.126-1.044-.378-1.476a2.765 2.765 0 00-1.044-1.026 2.903 2.903 0 00-1.458-.378c-.528 0-1.014.126-1.458.378a2.765 2.765 0 00-1.044 1.026 2.875 2.875 0 00-.378 1.476c0 .552.126 1.044.378 1.476.252.432.6.774 1.044 1.026.444.252.93.378 1.458.378zm2.52 21.276v-19.008h-5.04V257h5.04zm9.072 0v-10.908c0-.792.168-1.5.504-2.124a3.73 3.73 0 011.368-1.458c.576-.348 1.248-.522 2.016-.522 1.056 0 1.884.378 2.484 1.134.6.756.9 1.794.9 3.114V257h5.04v-11.412c0-1.656-.288-3.096-.864-4.32-.576-1.224-1.386-2.166-2.43-2.826-1.044-.66-2.262-.99-3.654-.99-1.248 0-2.358.27-3.33.81a6.048 6.048 0 00-2.286 2.178l-.144-2.448h-4.644V257h5.04zm25.236 7.524c1.44 0 2.754-.234 3.942-.702a8.92 8.92 0 003.078-1.998 8.884 8.884 0 001.998-3.096c.468-1.2.702-2.532.702-3.996v-16.74h-4.644l-.108 2.34a6.454 6.454 0 00-2.448-2.142c-.984-.492-2.088-.738-3.312-.738-1.248 0-2.406.246-3.474.738a8.87 8.87 0 00-2.808 2.034 9.254 9.254 0 00-1.872 3.042c-.444 1.164-.666 2.43-.666 3.798 0 1.32.216 2.55.648 3.69a9.373 9.373 0 001.8 2.988 8.276 8.276 0 002.718 1.998 7.96 7.96 0 003.366.72c1.2 0 2.298-.246 3.294-.738a6.795 6.795 0 002.466-2.034v1.548c0 1.008-.192 1.89-.576 2.646a4.308 4.308 0 01-1.602 1.764c-.684.42-1.494.63-2.43.63-.864 0-1.638-.198-2.322-.594a4.753 4.753 0 01-1.674-1.638l-4.824 1.188a8.749 8.749 0 001.98 2.772 9.127 9.127 0 002.952 1.854c1.128.444 2.4.666 3.816.666zm.144-12.528c-.888 0-1.674-.222-2.358-.666a4.844 4.844 0 01-1.638-1.8c-.408-.756-.612-1.614-.612-2.574 0-.96.204-1.818.612-2.574a4.844 4.844 0 011.638-1.8c.684-.444 1.47-.666 2.358-.666.888 0 1.674.222 2.358.666a4.844 4.844 0 011.638 1.8c.408.756.612 1.614.612 2.574 0 .96-.204 1.818-.612 2.574a4.844 4.844 0 01-1.638 1.8c-.684.444-1.47.666-2.358.666zm30.816-2.952v-2.952c1.344-.408 2.502-.99 3.474-1.746.972-.756 1.722-1.632 2.25-2.628.528-.996.792-2.094.792-3.294a7.009 7.009 0 00-2.466-5.4c-.78-.672-1.698-1.194-2.754-1.566-1.056-.372-2.208-.558-3.456-.558-1.128 0-2.178.156-3.15.468a8.788 8.788 0 00-2.61 1.332 8.45 8.45 0 00-1.944 2.034c-.528.78-.9 1.638-1.116 2.574l4.752 1.044c.288-.888.798-1.59 1.53-2.106.732-.516 1.566-.774 2.502-.774.672 0 1.272.132 1.8.396s.936.636 1.224 1.116c.288.48.432 1.02.432 1.62 0 2.256-2.028 3.876-6.084 4.86v5.58h4.824zm-2.412 8.1c.576 0 1.092-.132 1.548-.396a3.01 3.01 0 001.098-1.098c.276-.468.414-.99.414-1.566 0-.576-.138-1.098-.414-1.566a3.01 3.01 0 00-1.098-1.098 3.033 3.033 0 00-1.548-.396c-.576 0-1.092.132-1.548.396a3.01 3.01 0 00-1.098 1.098c-.276.468-.414.99-.414 1.566 0 .576.138 1.098.414 1.566a3.01 3.01 0 001.098 1.098c.456.264.972.396 1.548.396zM69.508 304l5.004-18.324L79.516 304H84.7l7.524-25.56h-5.472l-4.644 18.468-5.076-18.468H72.1l-5.076 18.468-4.68-18.468h-5.616L64.252 304h5.256zm34.776.54c1.296 0 2.52-.21 3.672-.63a9.289 9.289 0 003.024-1.782 7.271 7.271 0 001.944-2.772l-4.5-1.44c-.456.768-1.038 1.356-1.746 1.764a4.637 4.637 0 01-2.358.612c-1.248 0-2.28-.402-3.096-1.206-.816-.804-1.332-1.914-1.548-3.33h13.644v-1.26c0-1.512-.222-2.88-.666-4.104-.444-1.224-1.074-2.28-1.89-3.168a8.314 8.314 0 00-2.934-2.052c-1.14-.48-2.406-.72-3.798-.72-1.344 0-2.592.252-3.744.756a9.138 9.138 0 00-3.006 2.106 9.763 9.763 0 00-1.998 3.186c-.48 1.224-.72 2.544-.72 3.96 0 1.464.24 2.814.72 4.05.48 1.236 1.152 2.304 2.016 3.204.864.9 1.89 1.596 3.078 2.088s2.49.738 3.906.738zm3.852-12.168h-8.388c.24-1.248.738-2.232 1.494-2.952.756-.72 1.686-1.08 2.79-1.08 1.08 0 1.986.36 2.718 1.08.732.72 1.194 1.704 1.386 2.952zM133.228 304l3.816-12.852L140.86 304h4.644l6.3-19.008H146.8l-3.636 12.888-3.852-12.888h-4.356l-3.852 12.852-3.564-12.852h-5.184l6.3 19.008h4.572zm30.132.54c1.44 0 2.766-.252 3.978-.756a9.555 9.555 0 003.168-2.124 9.85 9.85 0 002.106-3.204c.504-1.224.756-2.556.756-3.996s-.246-2.766-.738-3.978a9.6 9.6 0 00-2.07-3.168 9.539 9.539 0 00-3.132-2.106c-1.2-.504-2.508-.756-3.924-.756-1.44 0-2.766.252-3.978.756a9.555 9.555 0 00-3.168 2.124 9.9 9.9 0 00-2.106 3.186c-.504 1.212-.756 2.538-.756 3.978 0 1.44.246 2.772.738 3.996a9.555 9.555 0 002.07 3.186 9.539 9.539 0 003.132 2.106c1.2.504 2.508.756 3.924.756zm.072-4.536c-.912 0-1.728-.24-2.448-.72s-1.29-1.134-1.71-1.962c-.42-.828-.63-1.77-.63-2.826s.21-1.998.63-2.826c.42-.828.99-1.482 1.71-1.962s1.536-.72 2.448-.72c.912 0 1.728.24 2.448.72s1.29 1.134 1.71 1.962c.42.828.63 1.77.63 2.826s-.21 1.998-.63 2.826c-.42.828-.99 1.482-1.71 1.962s-1.536.72-2.448.72zm21.816 4.536c1.32 0 2.514-.216 3.582-.648a7.924 7.924 0 002.754-1.836c.768-.792 1.356-1.74 1.764-2.844.408-1.104.612-2.34.612-3.708v-10.512h-5.04v10.62c0 1.368-.324 2.442-.972 3.222-.648.78-1.524 1.17-2.628 1.17s-1.98-.39-2.628-1.17c-.648-.78-.972-1.854-.972-3.222v-10.62h-5.04v10.512c0 1.848.354 3.45 1.062 4.806.708 1.356 1.704 2.4 2.988 3.132 1.284.732 2.79 1.098 4.518 1.098zm17.784-.54v-26.856h-5.04V304h5.04zm12.024.54c1.32 0 2.514-.294 3.582-.882a7.238 7.238 0 002.61-2.43l.144 2.772h4.644v-26.856h-5.04v9.972a6.688 6.688 0 00-2.43-1.962c-.972-.468-2.046-.702-3.222-.702-1.272 0-2.454.258-3.546.774a8.804 8.804 0 00-2.862 2.16 10.188 10.188 0 00-1.908 3.222c-.456 1.224-.684 2.556-.684 3.996 0 1.416.222 2.724.666 3.924a9.933 9.933 0 001.854 3.15 8.593 8.593 0 002.772 2.106 7.837 7.837 0 003.42.756zm1.224-4.536c-.912 0-1.728-.24-2.448-.72s-1.29-1.134-1.71-1.962c-.42-.828-.63-1.77-.63-2.826s.21-1.998.63-2.826c.42-.828.99-1.482 1.71-1.962s1.536-.72 2.448-.72c.912 0 1.728.24 2.448.72s1.29 1.134 1.71 1.962c.42.828.63 1.77.63 2.826s-.21 1.998-.63 2.826c-.42.828-.99 1.482-1.71 1.962s-1.536.72-2.448.72zM242.632 304v-26.856h-5.04V304h5.04zm13.176.54c1.44 0 2.766-.252 3.978-.756a9.555 9.555 0 003.168-2.124 9.85 9.85 0 002.106-3.204c.504-1.224.756-2.556.756-3.996s-.246-2.766-.738-3.978a9.6 9.6 0 00-2.07-3.168 9.539 9.539 0 00-3.132-2.106c-1.2-.504-2.508-.756-3.924-.756-1.44 0-2.766.252-3.978.756a9.555 9.555 0 00-3.168 2.124 9.9 9.9 0 00-2.106 3.186c-.504 1.212-.756 2.538-.756 3.978 0 1.44.246 2.772.738 3.996a9.555 9.555 0 002.07 3.186 9.539 9.539 0 003.132 2.106c1.2.504 2.508.756 3.924.756zm.072-4.536c-.912 0-1.728-.24-2.448-.72s-1.29-1.134-1.71-1.962c-.42-.828-.63-1.77-.63-2.826s.21-1.998.63-2.826c.42-.828.99-1.482 1.71-1.962s1.536-.72 2.448-.72c.912 0 1.728.24 2.448.72s1.29 1.134 1.71 1.962c.42.828.63 1.77.63 2.826s-.21 1.998-.63 2.826c-.42.828-.99 1.482-1.71 1.962s-1.536.72-2.448.72zM279.784 304l7.128-19.008h-5.328l-4.32 13.68-4.248-13.68h-5.508L274.636 304h5.148zm18.54.54c1.296 0 2.52-.21 3.672-.63a9.289 9.289 0 003.024-1.782 7.271 7.271 0 001.944-2.772l-4.5-1.44c-.456.768-1.038 1.356-1.746 1.764a4.637 4.637 0 01-2.358.612c-1.248 0-2.28-.402-3.096-1.206-.816-.804-1.332-1.914-1.548-3.33h13.644v-1.26c0-1.512-.222-2.88-.666-4.104-.444-1.224-1.074-2.28-1.89-3.168a8.314 8.314 0 00-2.934-2.052c-1.14-.48-2.406-.72-3.798-.72-1.344 0-2.592.252-3.744.756a9.138 9.138 0 00-3.006 2.106 9.763 9.763 0 00-1.998 3.186c-.48 1.224-.72 2.544-.72 3.96 0 1.464.24 2.814.72 4.05.48 1.236 1.152 2.304 2.016 3.204.864.9 1.89 1.596 3.078 2.088s2.49.738 3.906.738zm3.852-12.168h-8.388c.24-1.248.738-2.232 1.494-2.952.756-.72 1.686-1.08 2.79-1.08 1.08 0 1.986.36 2.718 1.08.732.72 1.194 1.704 1.386 2.952zm24.084 12.168a8.691 8.691 0 004.572-1.26l-.9-3.78a8.54 8.54 0 01-1.35.468c-.468.12-.906.18-1.314.18-.792 0-1.38-.246-1.764-.738-.384-.492-.576-1.194-.576-2.106v-8.244h5.184v-4.068h-5.184v-6.48h-5.04v6.48h-3.24v4.068h3.24v8.856c0 1.416.258 2.616.774 3.6a5.3 5.3 0 002.196 2.25c.948.516 2.082.774 3.402.774zm16.668 0c1.44 0 2.766-.252 3.978-.756a9.555 9.555 0 003.168-2.124 9.85 9.85 0 002.106-3.204c.504-1.224.756-2.556.756-3.996s-.246-2.766-.738-3.978a9.6 9.6 0 00-2.07-3.168 9.539 9.539 0 00-3.132-2.106c-1.2-.504-2.508-.756-3.924-.756-1.44 0-2.766.252-3.978.756a9.555 9.555 0 00-3.168 2.124 9.9 9.9 0 00-2.106 3.186c-.504 1.212-.756 2.538-.756 3.978 0 1.44.246 2.772.738 3.996a9.555 9.555 0 002.07 3.186 9.539 9.539 0 003.132 2.106c1.2.504 2.508.756 3.924.756zm.072-4.536c-.912 0-1.728-.24-2.448-.72s-1.29-1.134-1.71-1.962c-.42-.828-.63-1.77-.63-2.826s.21-1.998.63-2.826c.42-.828.99-1.482 1.71-1.962s1.536-.72 2.448-.72c.912 0 1.728.24 2.448.72s1.29 1.134 1.71 1.962c.42.828.63 1.77.63 2.826s-.21 1.998-.63 2.826c-.42.828-.99 1.482-1.71 1.962s-1.536.72-2.448.72zm26.64 4.536c1.32 0 2.46-.258 3.42-.774s1.692-1.182 2.196-1.998L375.4 304h4.5v-11.52c0-1.2-.198-2.286-.594-3.258a7.474 7.474 0 00-1.692-2.538 7.46 7.46 0 00-2.61-1.656c-1.008-.384-2.124-.576-3.348-.576-1.32 0-2.544.228-3.672.684-1.128.456-2.082 1.098-2.862 1.926a6.29 6.29 0 00-1.566 2.898l4.5.9c.264-.72.72-1.278 1.368-1.674a4.061 4.061 0 012.16-.594c1.056 0 1.89.336 2.502 1.008.612.672.918 1.548.918 2.628v1.116a12.42 12.42 0 00-2.07-.612 11.273 11.273 0 00-2.25-.216c-1.56 0-2.928.258-4.104.774-1.176.516-2.088 1.23-2.736 2.142-.648.912-.972 1.968-.972 3.168 0 .864.168 1.656.504 2.376.336.72.81 1.35 1.422 1.89.612.54 1.326.954 2.142 1.242.816.288 1.716.432 2.7.432zm1.224-3.888c-.912 0-1.644-.216-2.196-.648-.552-.432-.828-.984-.828-1.656 0-.744.33-1.338.99-1.782.66-.444 1.554-.666 2.682-.666.6 0 1.2.066 1.8.198.6.132 1.164.306 1.692.522v.18c0 .72-.18 1.374-.54 1.962a3.818 3.818 0 01-1.476 1.386c-.624.336-1.332.504-2.124.504zm21.06 3.888c1.32 0 2.514-.294 3.582-.882a7.238 7.238 0 002.61-2.43l.144 2.772h4.644v-26.856h-5.04v9.972a6.688 6.688 0 00-2.43-1.962c-.972-.468-2.046-.702-3.222-.702-1.272 0-2.454.258-3.546.774a8.804 8.804 0 00-2.862 2.16 10.188 10.188 0 00-1.908 3.222c-.456 1.224-.684 2.556-.684 3.996 0 1.416.222 2.724.666 3.924a9.933 9.933 0 001.854 3.15 8.593 8.593 0 002.772 2.106 7.837 7.837 0 003.42.756zm1.224-4.536c-.912 0-1.728-.24-2.448-.72s-1.29-1.134-1.71-1.962c-.42-.828-.63-1.77-.63-2.826s.21-1.998.63-2.826c.42-.828.99-1.482 1.71-1.962s1.536-.72 2.448-.72c.912 0 1.728.24 2.448.72s1.29 1.134 1.71 1.962c.42.828.63 1.77.63 2.826s-.21 1.998-.63 2.826c-.42.828-.99 1.482-1.71 1.962s-1.536.72-2.448.72zm21.78 4.536c1.32 0 2.514-.294 3.582-.882a7.238 7.238 0 002.61-2.43l.144 2.772h4.644v-26.856h-5.04v9.972a6.688 6.688 0 00-2.43-1.962c-.972-.468-2.046-.702-3.222-.702-1.272 0-2.454.258-3.546.774a8.804 8.804 0 00-2.862 2.16 10.188 10.188 0 00-1.908 3.222c-.456 1.224-.684 2.556-.684 3.996 0 1.416.222 2.724.666 3.924a9.933 9.933 0 001.854 3.15 8.593 8.593 0 002.772 2.106 7.837 7.837 0 003.42.756zm1.224-4.536c-.912 0-1.728-.24-2.448-.72s-1.29-1.134-1.71-1.962c-.42-.828-.63-1.77-.63-2.826s.21-1.998.63-2.826c.42-.828.99-1.482 1.71-1.962s1.536-.72 2.448-.72c.912 0 1.728.24 2.448.72s1.29 1.134 1.71 1.962c.42.828.63 1.77.63 2.826s-.21 1.998-.63 2.826c-.42.828-.99 1.482-1.71 1.962s-1.536.72-2.448.72zm23.832-17.28c.528 0 1.014-.126 1.458-.378a2.765 2.765 0 001.044-1.026c.252-.432.378-.924.378-1.476 0-.552-.126-1.044-.378-1.476a2.765 2.765 0 00-1.044-1.026 2.903 2.903 0 00-1.458-.378c-.528 0-1.014.126-1.458.378a2.765 2.765 0 00-1.044 1.026 2.875 2.875 0 00-.378 1.476c0 .552.126 1.044.378 1.476.252.432.6.774 1.044 1.026.444.252.93.378 1.458.378zm2.52 21.276v-19.008h-5.04V304h5.04zm12.276.54a8.691 8.691 0 004.572-1.26l-.9-3.78a8.54 8.54 0 01-1.35.468c-.468.12-.906.18-1.314.18-.792 0-1.38-.246-1.764-.738-.384-.492-.576-1.194-.576-2.106v-8.244h5.184v-4.068h-5.184v-6.48h-5.04v6.48h-3.24v4.068h3.24v8.856c0 1.416.258 2.616.774 3.6a5.3 5.3 0 002.196 2.25c.948.516 2.082.774 3.402.774zm20.196-8.496l.324-17.604h-5.472l.324 17.604h4.824zm-2.412 8.1c.576 0 1.092-.132 1.548-.396a3.01 3.01 0 001.098-1.098c.276-.468.414-.99.414-1.566 0-.576-.138-1.098-.414-1.566a3.01 3.01 0 00-1.098-1.098 3.033 3.033 0 00-1.548-.396c-.576 0-1.092.132-1.548.396a3.01 3.01 0 00-1.098 1.098c-.276.468-.414.99-.414 1.566 0 .576.138 1.098.414 1.566a3.01 3.01 0 001.098 1.098c.456.264.972.396 1.548.396z"/><use fill="#D8D8D8" xlink:href="#d"/><rect width="239" height="143" x="28" y="339" fill="#4051B5" rx="13"/><path fill="#FFF" fill-rule="nonzero" d="M59.44 431.4c1.013 0 1.94-.173 2.78-.52a6.222 6.222 0 002.17-1.48 5.855 5.855 0 001.33-2.26l-2.88-.72c-.347.733-.81 1.29-1.39 1.67-.58.38-1.25.57-2.01.57a3.766 3.766 0 01-1.61-.34 3.736 3.736 0 01-1.27-.97 4.442 4.442 0 01-.83-1.49 5.917 5.917 0 01-.29-1.9c0-.693.1-1.333.3-1.92.2-.587.477-1.097.83-1.53.353-.433.773-.77 1.26-1.01s1.01-.36 1.57-.36c.733 0 1.387.197 1.96.59.573.393 1.02.943 1.34 1.65l2.88-.72a5.615 5.615 0 00-.89-1.76 6.166 6.166 0 00-3.17-2.2c-.653-.2-1.347-.3-2.08-.3-.8 0-1.557.123-2.27.37a6.67 6.67 0 00-1.95 1.06 7.13 7.13 0 00-1.52 1.64 7.796 7.796 0 00-.99 2.1 8.301 8.301 0 00-.35 2.43c0 .853.113 1.657.34 2.41a7.22 7.22 0 00.97 2.04c.42.607.923 1.13 1.51 1.57.587.44 1.24.78 1.96 1.02s1.487.36 2.3.36zm10.82-.4v-14.92h-2.8V431h2.8zm3.64-11.82c.293 0 .563-.07.81-.21.247-.14.44-.33.58-.57.14-.24.21-.513.21-.82 0-.307-.07-.58-.21-.82-.14-.24-.333-.43-.58-.57a1.613 1.613 0 00-.81-.21c-.293 0-.563.07-.81.21-.247.14-.44.33-.58.57-.14.24-.21.513-.21.82 0 .307.07.58.21.82.14.24.333.43.58.57.247.14.517.21.81.21zM75.3 431v-10.56h-2.8V431h2.8zm7.14.3c.773 0 1.493-.14 2.16-.42a4.788 4.788 0 001.71-1.2c.473-.52.797-1.133.97-1.84l-2.66-.52a2.249 2.249 0 01-.86 1.08 2.32 2.32 0 01-1.3.38c-.48 0-.907-.13-1.28-.39a2.568 2.568 0 01-.87-1.07c-.207-.453-.31-.973-.31-1.56 0-.587.107-1.117.32-1.59.213-.473.503-.843.87-1.11.367-.267.79-.4 1.27-.4.453 0 .86.13 1.22.39s.64.617.84 1.07l2.66-.52a4.38 4.38 0 00-.93-1.82 4.596 4.596 0 00-1.63-1.21 5.078 5.078 0 00-2.1-.43 5.21 5.21 0 00-2.12.43 5.224 5.224 0 00-1.71 1.2 5.594 5.594 0 00-1.14 1.8 5.975 5.975 0 00-.41 2.23c0 .787.133 1.517.4 2.19a5.333 5.333 0 001.11 1.75 4.996 4.996 0 001.68 1.15c.647.273 1.35.41 2.11.41zm9.26-.3v-5.26l4.14 5.26h3.54l-4.88-5.88 4.4-4.68h-3.28l-3.92 4.3v-8.66h-2.74V431h2.74zm16.22 0v-6.02h6.28V431h2.98v-14.2h-2.98v5.54h-6.28v-5.54h-2.98V431h2.98zm16.68.3c.72 0 1.4-.117 2.04-.35a5.16 5.16 0 001.68-.99c.48-.427.84-.94 1.08-1.54l-2.5-.8a2.682 2.682 0 01-.97.98c-.393.227-.83.34-1.31.34-.693 0-1.267-.223-1.72-.67-.453-.447-.74-1.063-.86-1.85h7.58v-.7c0-.84-.123-1.6-.37-2.28a5.175 5.175 0 00-1.05-1.76 4.619 4.619 0 00-1.63-1.14c-.633-.267-1.337-.4-2.11-.4a5.077 5.077 0 00-3.75 1.59c-.473.5-.843 1.09-1.11 1.77-.267.68-.4 1.413-.4 2.2 0 .813.133 1.563.4 2.25s.64 1.28 1.12 1.78c.48.5 1.05.887 1.71 1.16.66.273 1.383.41 2.17.41zm2.14-6.76h-4.66c.133-.693.41-1.24.83-1.64.42-.4.937-.6 1.55-.6.6 0 1.103.2 1.51.6.407.4.663.947.77 1.64zm7.42 6.46v-5.18c0-.867.207-1.537.62-2.01.413-.473 1.007-.71 1.78-.71.16 0 .317.01.47.03.153.02.303.057.45.11l.3-2.76a3.022 3.022 0 00-.5-.13 3.18 3.18 0 00-.56-.05c-.613 0-1.147.15-1.6.45-.453.3-.813.73-1.08 1.29l-.1-1.6h-2.58V431h2.8zm10.14.3c.72 0 1.4-.117 2.04-.35a5.16 5.16 0 001.68-.99c.48-.427.84-.94 1.08-1.54l-2.5-.8a2.682 2.682 0 01-.97.98c-.393.227-.83.34-1.31.34-.693 0-1.267-.223-1.72-.67-.453-.447-.74-1.063-.86-1.85h7.58v-.7c0-.84-.123-1.6-.37-2.28a5.175 5.175 0 00-1.05-1.76 4.619 4.619 0 00-1.63-1.14c-.633-.267-1.337-.4-2.11-.4a5.077 5.077 0 00-3.75 1.59c-.473.5-.843 1.09-1.11 1.77-.267.68-.4 1.413-.4 2.2 0 .813.133 1.563.4 2.25s.64 1.28 1.12 1.78c.48.5 1.05.887 1.71 1.16.66.273 1.383.41 2.17.41zm2.14-6.76h-4.66c.133-.693.41-1.24.83-1.64.42-.4.937-.6 1.55-.6.6 0 1.103.2 1.51.6.407.4.663.947.77 1.64zm13.38 6.76a4.828 4.828 0 002.54-.7l-.5-2.1c-.24.107-.49.193-.75.26s-.503.1-.73.1c-.44 0-.767-.137-.98-.41-.213-.273-.32-.663-.32-1.17v-4.58h2.88v-2.26h-2.88v-3.6h-2.8v3.6h-1.8v2.26h1.8v4.92c0 .787.143 1.453.43 2 .287.547.693.963 1.22 1.25.527.287 1.157.43 1.89.43zm9.26 0a5.7 5.7 0 002.21-.42 5.308 5.308 0 001.76-1.18c.5-.507.89-1.1 1.17-1.78.28-.68.42-1.42.42-2.22 0-.8-.137-1.537-.41-2.21a5.333 5.333 0 00-1.15-1.76 5.3 5.3 0 00-1.74-1.17 5.573 5.573 0 00-2.18-.42 5.7 5.7 0 00-2.21.42c-.673.28-1.26.673-1.76 1.18a5.5 5.5 0 00-1.17 1.77 5.7 5.7 0 00-.42 2.21c0 .8.137 1.54.41 2.22.273.68.657 1.27 1.15 1.77a5.3 5.3 0 001.74 1.17c.667.28 1.393.42 2.18.42zm.04-2.52c-.507 0-.96-.133-1.36-.4-.4-.267-.717-.63-.95-1.09-.233-.46-.35-.983-.35-1.57 0-.587.117-1.11.35-1.57.233-.46.55-.823.95-1.09.4-.267.853-.4 1.36-.4.507 0 .96.133 1.36.4.4.267.717.63.95 1.09.233.46.35.983.35 1.57 0 .587-.117 1.11-.35 1.57-.233.46-.55.823-.95 1.09-.4.267-.853.4-1.36.4zm12.94-9.6c.293 0 .563-.07.81-.21.247-.14.44-.33.58-.57.14-.24.21-.513.21-.82 0-.307-.07-.58-.21-.82-.14-.24-.333-.43-.58-.57a1.613 1.613 0 00-.81-.21c-.293 0-.563.07-.81.21-.247.14-.44.33-.58.57-.14.24-.21.513-.21.82 0 .307.07.58.21.82.14.24.333.43.58.57.247.14.517.21.81.21zm1.4 11.82v-10.56h-2.8V431h2.8zm5.04 0v-6.06c0-.44.093-.833.28-1.18a2.07 2.07 0 01.76-.81c.32-.193.693-.29 1.12-.29.587 0 1.047.21 1.38.63.333.42.5.997.5 1.73V431h2.8v-6.34c0-.92-.16-1.72-.48-2.4-.32-.68-.77-1.203-1.35-1.57-.58-.367-1.257-.55-2.03-.55-.693 0-1.31.15-1.85.45-.54.3-.963.703-1.27 1.21l-.08-1.36h-2.58V431h2.8zm12.92 0v-8.3h2.8v-2.26h-2.8v-.42c0-.56.127-.997.38-1.31.253-.313.647-.47 1.18-.47.187 0 .383.03.59.09.207.06.39.13.55.21l.56-2.14a5.174 5.174 0 00-.91-.36 4.112 4.112 0 00-1.19-.16c-.573 0-1.103.097-1.59.29a3.68 3.68 0 00-1.26.82 3.68 3.68 0 00-.82 1.26 4.268 4.268 0 00-.29 1.59v.6h-1.8v2.26h1.8v8.3h2.8zm9.44.3a5.7 5.7 0 002.21-.42 5.308 5.308 0 001.76-1.18c.5-.507.89-1.1 1.17-1.78.28-.68.42-1.42.42-2.22 0-.8-.137-1.537-.41-2.21a5.333 5.333 0 00-1.15-1.76 5.3 5.3 0 00-1.74-1.17 5.573 5.573 0 00-2.18-.42 5.7 5.7 0 00-2.21.42c-.673.28-1.26.673-1.76 1.18a5.5 5.5 0 00-1.17 1.77 5.7 5.7 0 00-.42 2.21c0 .8.137 1.54.41 2.22.273.68.657 1.27 1.15 1.77a5.3 5.3 0 001.74 1.17c.667.28 1.393.42 2.18.42zm.04-2.52c-.507 0-.96-.133-1.36-.4-.4-.267-.717-.63-.95-1.09-.233-.46-.35-.983-.35-1.57 0-.587.117-1.11.35-1.57.233-.46.55-.823.95-1.09.4-.267.853-.4 1.36-.4.507 0 .96.133 1.36.4.4.267.717.63.95 1.09.233.46.35.983.35 1.57 0 .587-.117 1.11-.35 1.57-.233.46-.55.823-.95 1.09-.4.267-.853.4-1.36.4zm10.16 2.22v-5.18c0-.867.207-1.537.62-2.01.413-.473 1.007-.71 1.78-.71.16 0 .317.01.47.03.153.02.303.057.45.11l.3-2.76a3.022 3.022 0 00-.5-.13 3.18 3.18 0 00-.56-.05c-.613 0-1.147.15-1.6.45-.453.3-.813.73-1.08 1.29l-.1-1.6h-2.58V431h2.8zm7.94 0v-6.06c0-.44.087-.833.26-1.18.173-.347.417-.617.73-.81.313-.193.67-.29 1.07-.29.573 0 1.02.21 1.34.63.32.42.48.997.48 1.73V431h2.8v-6.06c0-.44.087-.833.26-1.18.173-.347.417-.617.73-.81.313-.193.67-.29 1.07-.29.573 0 1.02.21 1.34.63.32.42.48.997.48 1.73V431h2.8v-6.34c0-.92-.157-1.72-.47-2.4-.313-.68-.757-1.203-1.33-1.57-.573-.367-1.253-.55-2.04-.55-.787 0-1.483.18-2.09.54a3.69 3.69 0 00-1.39 1.42 3.512 3.512 0 00-1.29-1.44c-.553-.347-1.183-.52-1.89-.52a3.52 3.52 0 00-1.76.44c-.52.293-.933.693-1.24 1.2l-.08-1.34h-2.58V431h2.8zM99.06 457.3c.733 0 1.397-.12 1.99-.36a4.402 4.402 0 001.53-1.02 4.46 4.46 0 00.98-1.58c.227-.613.34-1.3.34-2.06v-5.84h-2.8v5.9c0 .76-.18 1.357-.54 1.79-.36.433-.847.65-1.46.65s-1.1-.217-1.46-.65c-.36-.433-.54-1.03-.54-1.79v-5.9h-2.8v5.84c0 1.027.197 1.917.59 2.67a4.182 4.182 0 001.66 1.74c.713.407 1.55.61 2.51.61zm10.88 0c.627 0 1.2-.087 1.72-.26.52-.173.973-.42 1.36-.74a3.33 3.33 0 00.89-1.12c.207-.427.31-.9.31-1.42 0-.853-.3-1.557-.9-2.11-.6-.553-1.467-.93-2.6-1.13l-.56-.1c-.627-.107-1.07-.25-1.33-.43s-.39-.403-.39-.67c0-.307.133-.56.4-.76.267-.2.607-.3 1.02-.3.4 0 .75.113 1.05.34.3.227.517.54.65.94l2.5-.52a3.481 3.481 0 00-.8-1.54 3.873 3.873 0 00-1.45-.99 5.128 5.128 0 00-1.93-.35c-.8 0-1.507.147-2.12.44-.613.293-1.093.697-1.44 1.21s-.52 1.103-.52 1.77c0 .84.297 1.533.89 2.08.593.547 1.463.92 2.61 1.12l.56.1c.6.107 1.03.257 1.29.45s.39.437.39.73c0 .347-.147.62-.44.82-.293.2-.667.3-1.12.3-.48 0-.893-.12-1.24-.36a1.847 1.847 0 01-.72-.98l-2.52.54c.16.6.45 1.12.87 1.56.42.44.933.78 1.54 1.02s1.283.36 2.03.36zm16.12-.3l3.96-10.56h-2.96l-2.4 7.6-2.36-7.6h-3.06L123.2 457h2.86zm6.7-11.82c.293 0 .563-.07.81-.21.247-.14.44-.33.58-.57.14-.24.21-.513.21-.82 0-.307-.07-.58-.21-.82-.14-.24-.333-.43-.58-.57a1.613 1.613 0 00-.81-.21c-.293 0-.563.07-.81.21-.247.14-.44.33-.58.57-.14.24-.21.513-.21.82 0 .307.07.58.21.82.14.24.333.43.58.57.247.14.517.21.81.21zm1.4 11.82v-10.56h-2.8V457h2.8zm5.5.3c.733 0 1.367-.143 1.9-.43.533-.287.94-.657 1.22-1.11l.08 1.24h2.5v-6.4c0-.667-.11-1.27-.33-1.81a4.152 4.152 0 00-.94-1.41c-.407-.4-.89-.707-1.45-.92a5.187 5.187 0 00-1.86-.32c-.733 0-1.413.127-2.04.38a4.433 4.433 0 00-1.59 1.07c-.433.46-.723.997-.87 1.61l2.5.5c.147-.4.4-.71.76-.93.36-.22.76-.33 1.2-.33.587 0 1.05.187 1.39.56.34.373.51.86.51 1.46v.62a6.9 6.9 0 00-1.15-.34 6.26 6.26 0 00-1.25-.12c-.867 0-1.627.143-2.28.43-.653.287-1.16.683-1.52 1.19-.36.507-.54 1.093-.54 1.76a3.078 3.078 0 001.07 2.37c.34.3.737.53 1.19.69.453.16.953.24 1.5.24zm.68-2.16c-.507 0-.913-.12-1.22-.36a1.119 1.119 0 01-.46-.92c0-.413.183-.743.55-.99.367-.247.863-.37 1.49-.37.333 0 .667.037 1 .11.333.073.647.17.94.29v.1c0 .4-.1.763-.3 1.09-.2.327-.473.583-.82.77a2.45 2.45 0 01-1.18.28zm20.72 1.86v-2.54h-6.22v-3.48h5.38v-2.54h-5.38v-3.1h6.02v-2.54h-8.9V457h9.1zm5 0v-6.06c0-.44.087-.833.26-1.18.173-.347.417-.617.73-.81.313-.193.67-.29 1.07-.29.573 0 1.02.21 1.34.63.32.42.48.997.48 1.73V457h2.8v-6.06c0-.44.087-.833.26-1.18.173-.347.417-.617.73-.81.313-.193.67-.29 1.07-.29.573 0 1.02.21 1.34.63.32.42.48.997.48 1.73V457h2.8v-6.34c0-.92-.157-1.72-.47-2.4-.313-.68-.757-1.203-1.33-1.57-.573-.367-1.253-.55-2.04-.55-.787 0-1.483.18-2.09.54a3.69 3.69 0 00-1.39 1.42 3.512 3.512 0 00-1.29-1.44c-.553-.347-1.183-.52-1.89-.52a3.52 3.52 0 00-1.76.44c-.52.293-.933.693-1.24 1.2l-.08-1.34h-2.58V457h2.8zm18.86.3c.733 0 1.367-.143 1.9-.43.533-.287.94-.657 1.22-1.11l.08 1.24h2.5v-6.4c0-.667-.11-1.27-.33-1.81a4.152 4.152 0 00-.94-1.41c-.407-.4-.89-.707-1.45-.92a5.187 5.187 0 00-1.86-.32c-.733 0-1.413.127-2.04.38a4.433 4.433 0 00-1.59 1.07c-.433.46-.723.997-.87 1.61l2.5.5c.147-.4.4-.71.76-.93.36-.22.76-.33 1.2-.33.587 0 1.05.187 1.39.56.34.373.51.86.51 1.46v.62a6.9 6.9 0 00-1.15-.34 6.26 6.26 0 00-1.25-.12c-.867 0-1.627.143-2.28.43-.653.287-1.16.683-1.52 1.19-.36.507-.54 1.093-.54 1.76a3.078 3.078 0 001.07 2.37c.34.3.737.53 1.19.69.453.16.953.24 1.5.24zm.68-2.16c-.507 0-.913-.12-1.22-.36a1.119 1.119 0 01-.46-.92c0-.413.183-.743.55-.99.367-.247.863-.37 1.49-.37.333 0 .667.037 1 .11.333.073.647.17.94.29v.1c0 .4-.1.763-.3 1.09-.2.327-.473.583-.82.77a2.45 2.45 0 01-1.18.28zm8.66-9.96c.293 0 .563-.07.81-.21.247-.14.44-.33.58-.57.14-.24.21-.513.21-.82 0-.307-.07-.58-.21-.82-.14-.24-.333-.43-.58-.57a1.613 1.613 0 00-.81-.21c-.293 0-.563.07-.81.21-.247.14-.44.33-.58.57-.14.24-.21.513-.21.82 0 .307.07.58.21.82.14.24.333.43.58.57.247.14.517.21.81.21zm1.4 11.82v-10.56h-2.8V457h2.8zm5.04 0v-14.92h-2.8V457h2.8zm-37.521-104c-.672 0-1.346.254-1.86.767l-6.61 6.59c-.756.755-.218 2.043.852 2.043h5.146v7.05a2.349 2.349 0 001.169 2.063 2.363 2.363 0 002.376 0 2.349 2.349 0 001.168-2.063v-7.05h5.376c1.068 0 1.606-1.288.852-2.042l-6.61-6.591a2.625 2.625 0 00-1.86-.767zm-35.466 9.4a4.693 4.693 0 00-4.658 4.15l23.512 14.65 11.286-7.032c-1.143-1.252-1.86-2.901-1.86-4.718v-2.35h-2.356a4.705 4.705 0 01-4.713-4.7h-21.21zM123 371.217V395.3c0 2.597 2.11 4.7 4.713 4.7h37.707a4.705 4.705 0 004.714-4.7v-19.91c0-1.084-1.326-1.705-2.095-.942a7.065 7.065 0 01-4.975 2.052c-.446 0-.881-.053-1.303-.133l-.11.133-13.837 8.624a2.353 2.353 0 01-2.495 0L123 371.217z"/></g></svg>